<svg
  id="Capa_1"
  data-name="Capa 1"
  xmlns="http://www.w3.org/2000/svg"
  viewBox="0 0 390.7 116.1"
>
  <title>Basor</title>
  <g id="_Grupo_" data-name="&lt;Grupo&gt;">
    <g id="_Grupo_2" data-name="&lt;Grupo&gt;">
      <path
        id="_Trazado_"
        data-name="&lt;Trazado&gt;"
        class="cls-1"
        d="M364.3,46.4c-1.8,2.1-2.6,5.7-2.6,10.7v24H345.8v-53h15.4v9.1a13.12,13.12,0,0,1,1.6-3.1,12.67,12.67,0,0,1,2.7-3,13.4,13.4,0,0,1,3.6-2.2,10.82,10.82,0,0,1,4.4-.9h3.6V44.3a15.64,15.64,0,0,0-5.5-1A9,9,0,0,0,364.3,46.4Z"
      />
    </g>
    <g id="_Grupo_3" data-name="&lt;Grupo&gt;">
      <path
        id="_Trazado_compuesto_"
        data-name="&lt;Trazado compuesto&gt;"
        class="cls-1"
        d="M203.7,79.3a20.29,20.29,0,0,1-7.2-5,23,23,0,0,1-4.7-7.9,31.24,31.24,0,0,1-1.7-10.5,26.51,26.51,0,0,1,1.8-9.7,25.44,25.44,0,0,1,4.9-8.1,24.56,24.56,0,0,1,7.5-5.6,21.23,21.23,0,0,1,9.4-2.1,17.46,17.46,0,0,1,7.6,1.5,29.39,29.39,0,0,1,6.4,4.4V30.4h14.6V81.1H227.4V75.2a31,31,0,0,1-3.8,3,27.16,27.16,0,0,1-4.5,2.1,19.3,19.3,0,0,1-6.2.9A24.75,24.75,0,0,1,203.7,79.3Zm23.6-28.1a8.92,8.92,0,0,0-2.3-3.4,9.67,9.67,0,0,0-3.6-2.3,11.93,11.93,0,0,0-4.7-.9,12.09,12.09,0,0,0-4.8.9,11.52,11.52,0,0,0-3.7,2.5,11,11,0,0,0-2.3,3.7,13.3,13.3,0,0,0-.8,4.5,11.49,11.49,0,0,0,3.3,8.1,11.82,11.82,0,0,0,3.7,2.4,11.44,11.44,0,0,0,4.6.9,11.07,11.07,0,0,0,8.4-3.2,12.4,12.4,0,0,0,3.1-8.8A11.87,11.87,0,0,0,227.3,51.2Z"
      />
    </g>
    <g id="_Grupo_4" data-name="&lt;Grupo&gt;">
      <path
        id="_Trazado_compuesto_2"
        data-name="&lt;Trazado compuesto&gt;"
        class="cls-1"
        d="M306,79a27.14,27.14,0,0,1-8.4-5.7A25.88,25.88,0,0,1,292,65a24,24,0,0,1-2-9.9,25.4,25.4,0,0,1,7.8-18.5,26.79,26.79,0,0,1,8.5-5.4,29.52,29.52,0,0,1,21.1-.1,27.89,27.89,0,0,1,8.4,5.3,24,24,0,0,1,5.6,8.1,24.45,24.45,0,0,1,2,10.2,27.47,27.47,0,0,1-1.9,10.4,23.63,23.63,0,0,1-5.5,8.3,24.45,24.45,0,0,1-8.5,5.5,29.37,29.37,0,0,1-10.9,2A23.06,23.06,0,0,1,306,79Zm21.7-28.9a11.35,11.35,0,0,0-2.4-3.6,11.82,11.82,0,0,0-3.7-2.4,12.44,12.44,0,0,0-4.8-.9,12.59,12.59,0,0,0-4.9.9,11,11,0,0,0-6.2,6.5,12.24,12.24,0,0,0-.8,4.7,11.49,11.49,0,0,0,3.4,8.3,12.55,12.55,0,0,0,3.8,2.5,11.93,11.93,0,0,0,4.7.9q5.55,0,8.7-3.3a12.77,12.77,0,0,0,3.2-9.1A14.9,14.9,0,0,0,327.7,50.1Z"
      />
    </g>
    <g id="_Grupo_5" data-name="&lt;Grupo&gt;">
      <path
        id="_Trazado_2"
        data-name="&lt;Trazado&gt;"
        class="cls-1"
        d="M273.3,48.4c-2.4-.5-7.8-1-7.8-4.3,0-2.5,3.4-3.3,5.4-3.3a22.2,22.2,0,0,1,9.4,2.4l5.8-11.1A38.83,38.83,0,0,0,270,29c-10.7,0-21.6,5.3-21.6,17.4,0,8.8,5.4,11.5,10.9,12.9s10.9,1.6,10.9,5.4c0,2.7-3.2,3.7-5.4,3.7-4.3,0-10.2-2.5-13.7-5l-6.3,12.1a38.21,38.21,0,0,0,19.8,5.6c11.4,0,23.1-5.3,23.1-18.2C287.5,53.8,281.4,50,273.3,48.4Z"
      />
    </g>
    <g id="_Grupo_6" data-name="&lt;Grupo&gt;">
      <path
        id="_Trazado_3"
        data-name="&lt;Trazado&gt;"
        class="cls-1"
        d="M18.1,107.6a4.6,4.6,0,0,1-3.4-1.4c-1.3-1.3-1.2-2.8-1.2-5s0-3.7,1.2-5a4.6,4.6,0,0,1,3.4-1.4,4.38,4.38,0,0,1,4.6,4H20.2A2.07,2.07,0,0,0,18.1,97a2.11,2.11,0,0,0-1.6.6c-.5.5-.6,1.1-.6,3.5s.1,3,.6,3.5a2.18,2.18,0,0,0,1.6.7,2.07,2.07,0,0,0,2.1-1.8h2.5A4.39,4.39,0,0,1,18.1,107.6Z"
      />
      <path
        id="_Trazado_compuesto_3"
        data-name="&lt;Trazado compuesto&gt;"
        class="cls-1"
        d="M40,107.5l-.7-2.2H34.9l-.8,2.2H31.6L36.1,95H38l4.6,12.5Zm-2.9-8.8-1.6,4.6h3.1Z"
      />
      <path
        id="_Trazado_compuesto_4"
        data-name="&lt;Trazado compuesto&gt;"
        class="cls-1"
        d="M57.6,107.5H52.4V95h5c2.4,0,3.9,1.4,3.9,3.5a2.94,2.94,0,0,1-1.5,2.6,2.83,2.83,0,0,1,1.7,2.8A3.6,3.6,0,0,1,57.6,107.5Zm-.4-10.3H54.8v2.9h2.4a1.43,1.43,0,0,0,1.6-1.4A1.5,1.5,0,0,0,57.2,97.2Zm.2,5H54.9v3.1h2.5a1.44,1.44,0,0,0,1.6-1.5A1.47,1.47,0,0,0,57.4,102.2Z"
      />
      <path
        id="_Trazado_4"
        data-name="&lt;Trazado&gt;"
        class="cls-1"
        d="M72.2,107.5V95h2.4v10.3h5.7v2.2Z"
      />
      <path
        id="_Trazado_5"
        data-name="&lt;Trazado&gt;"
        class="cls-1"
        d="M90.5,107.5V95h8.2v2.2H93v2.9h4.9v2.2H93v3h5.8v2.2Z"
      />
      <path
        id="_Trazado_6"
        data-name="&lt;Trazado&gt;"
        class="cls-1"
        d="M126.5,97.2v10.3h-2.4V97.2h-3.3V95h9v2.2Z"
      />
      <path
        id="_Trazado_compuesto_5"
        data-name="&lt;Trazado compuesto&gt;"
        class="cls-1"
        d="M146.7,107.5l-2.4-5h-1.8v5H140V95h4.9a3.82,3.82,0,0,1,4.1,3.8,3.43,3.43,0,0,1-2.3,3.3l2.8,5.4Zm-1.9-10.3h-2.3v3.3h2.3a1.66,1.66,0,0,0,1.8-1.7A1.76,1.76,0,0,0,144.8,97.2Z"
      />
      <path
        id="_Trazado_compuesto_6"
        data-name="&lt;Trazado compuesto&gt;"
        class="cls-1"
        d="M166.9,107.5l-.7-2.2h-4.4l-.8,2.2h-2.5L163.1,95H165l4.6,12.5ZM164,98.7l-1.6,4.6h3.1Z"
      />
      <path
        id="_Trazado_7"
        data-name="&lt;Trazado&gt;"
        class="cls-1"
        d="M183.4,102.4v5.1H181v-5.1L177.2,95h2.7l2.3,5,2.3-5h2.7Z"
      />
      <path
        id="_Trazado_8"
        data-name="&lt;Trazado&gt;"
        class="cls-1"
        d="M212.7,107.6a5.88,5.88,0,0,1-4.6-1.7l1.6-1.6a4.14,4.14,0,0,0,3,1.1c1.4,0,2.2-.5,2.2-1.5a1.5,1.5,0,0,0-.4-1.1,1.42,1.42,0,0,0-1.1-.4l-1.5-.2a4.47,4.47,0,0,1-2.4-1,3.33,3.33,0,0,1-.9-2.5c0-2.2,1.7-3.8,4.4-3.8a5,5,0,0,1,4,1.5l-1.5,1.5a3.34,3.34,0,0,0-2.6-.9c-1.3,0-1.9.7-1.9,1.6a1.09,1.09,0,0,0,.4.9,2.7,2.7,0,0,0,1.2.5l1.5.2a4.47,4.47,0,0,1,2.4,1,3.34,3.34,0,0,1,1,2.7C217.3,106.2,215.3,107.6,212.7,107.6Z"
      />
      <path
        id="_Trazado_compuesto_7"
        data-name="&lt;Trazado compuesto&gt;"
        class="cls-1"
        d="M232.7,102.8h-2.4v4.7h-2.4V95h4.8a3.9,3.9,0,1,1,0,7.8Zm-.1-5.6h-2.3v3.4h2.3a1.7,1.7,0,1,0,0-3.4Z"
      />
      <path
        id="_Trazado_9"
        data-name="&lt;Trazado&gt;"
        class="cls-1"
        d="M247.1,107.5V95h8.2v2.2h-5.8v2.9h4.9v2.2h-4.9v3h5.8v2.2Z"
      />
      <path
        id="_Trazado_10"
        data-name="&lt;Trazado&gt;"
        class="cls-1"
        d="M270.2,107.6a4.6,4.6,0,0,1-3.4-1.4c-1.3-1.3-1.2-2.8-1.2-5s0-3.7,1.2-5a4.6,4.6,0,0,1,3.4-1.4,4.38,4.38,0,0,1,4.6,4h-2.5a2.07,2.07,0,0,0-2.1-1.8,2.11,2.11,0,0,0-1.6.6c-.5.5-.6,1.1-.6,3.5s.1,3,.6,3.5a2.18,2.18,0,0,0,1.6.7,2.07,2.07,0,0,0,2.1-1.8h2.5A4.39,4.39,0,0,1,270.2,107.6Z"
      />
      <path
        id="_Trazado_11"
        data-name="&lt;Trazado&gt;"
        class="cls-1"
        d="M285.2,107.5V95h2.4v12.5Z"
      />
      <path
        id="_Trazado_compuesto_8"
        data-name="&lt;Trazado compuesto&gt;"
        class="cls-1"
        d="M305.9,107.5l-.7-2.2h-4.4l-.8,2.2h-2.5L302.1,95H304l4.6,12.5ZM303,98.7l-1.6,4.6h3.1Z"
      />
      <path
        id="_Trazado_12"
        data-name="&lt;Trazado&gt;"
        class="cls-1"
        d="M318.2,107.5V95h2.4v10.3h5.7v2.2Z"
      />
      <path
        id="_Trazado_13"
        data-name="&lt;Trazado&gt;"
        class="cls-1"
        d="M336.6,107.5V95H339v12.5Z"
      />
      <path
        id="_Trazado_14"
        data-name="&lt;Trazado&gt;"
        class="cls-1"
        d="M353.6,107.6a5.88,5.88,0,0,1-4.6-1.7l1.6-1.6a4.14,4.14,0,0,0,3,1.1c1.4,0,2.2-.5,2.2-1.5a1.5,1.5,0,0,0-.4-1.1,1.42,1.42,0,0,0-1.1-.4l-1.5-.2a4.47,4.47,0,0,1-2.4-1,3.33,3.33,0,0,1-.9-2.5c0-2.2,1.7-3.8,4.4-3.8a5,5,0,0,1,4,1.5l-1.5,1.5a3.34,3.34,0,0,0-2.6-.9c-1.3,0-1.9.7-1.9,1.6a1.09,1.09,0,0,0,.4.9,2.7,2.7,0,0,0,1.2.5l1.5.2a4.47,4.47,0,0,1,2.4,1,3.34,3.34,0,0,1,1,2.7C358.3,106.2,356.2,107.6,353.6,107.6Z"
      />
      <path
        id="_Trazado_15"
        data-name="&lt;Trazado&gt;"
        class="cls-1"
        d="M373.6,97.2v10.3h-2.4V97.2h-3.3V95h9v2.2Z"
      />
    </g>
    <path
      id="_Trazado_16"
      data-name="&lt;Trazado&gt;"
      class="cls-2"
      d="M68.9,31.7A21.21,21.21,0,0,0,47.7,10.5H19.4V24.7H46.5a7.12,7.12,0,0,1,5,2.1,6.94,6.94,0,0,1,2.1,5h0a7,7,0,0,1-7,7H19.4V52.9H46.6A6.49,6.49,0,0,1,51.4,55a6.94,6.94,0,0,1,2.1,5h0a7,7,0,0,1-7,7h-33V81.2H47.7A21.21,21.21,0,0,0,68.9,60a20.79,20.79,0,0,0-5.4-14.1A21.42,21.42,0,0,0,68.9,31.7Z"
    />
    <path
      id="_Trazado_17"
      data-name="&lt;Trazado&gt;"
      class="cls-2"
      d="M71.2,31.7A21.21,21.21,0,0,1,92.4,10.5h28.3V24.7h-27a7.12,7.12,0,0,0-5,2.1,6.94,6.94,0,0,0-2.1,5h0a7,7,0,0,0,7,7h27.1V52.9H93.5A6.49,6.49,0,0,0,88.7,55a6.94,6.94,0,0,0-2.1,5h0a7,7,0,0,0,7,7h32.9V81.2H92.4A21.21,21.21,0,0,1,71.2,60a20.79,20.79,0,0,1,5.4-14.1A21.94,21.94,0,0,1,71.2,31.7Z"
    />
    <path
      id="_Trazado_compuesto_9"
      data-name="&lt;Trazado compuesto&gt;"
      class="cls-1"
      d="M186.5,52.7a14.06,14.06,0,0,0-3.5-5,16.94,16.94,0,0,0-4.6-3.1,35.79,35.79,0,0,0-4.9-1.7,16.63,16.63,0,0,0,7-6,16.34,16.34,0,0,0,2.4-9,18.31,18.31,0,0,0-1.3-7.1,15.35,15.35,0,0,0-3.9-5.5,17.47,17.47,0,0,0-6.3-3.5,24.69,24.69,0,0,0-8.4-1.3H133.8V81.1h30.5a33,33,0,0,0,8.9-1.2,21.55,21.55,0,0,0,7.6-3.7,18.75,18.75,0,0,0,5.3-6.5,22.06,22.06,0,0,0,2-9.7A23.92,23.92,0,0,0,186.5,52.7ZM151.7,24.1h5.1a13.58,13.58,0,0,1,2.9.3,7.94,7.94,0,0,1,2.7,1,5.61,5.61,0,0,1,2.6,5.2,8.8,8.8,0,0,1-.6,3.5,6.2,6.2,0,0,1-1.7,2.2,7.25,7.25,0,0,1-2.5,1.2,14.28,14.28,0,0,1-2.9.3h-5.4V24.1Zm16.9,38.8a6,6,0,0,1-2,2.4,6.86,6.86,0,0,1-2.9,1.2,18.61,18.61,0,0,1-3.4.4h-8.6V51.4h8.2a13.93,13.93,0,0,1,3.5.4,9.93,9.93,0,0,1,3,1.2,8,8,0,0,1,2.2,2.3,6.85,6.85,0,0,1,.8,3.6A8.86,8.86,0,0,1,168.6,62.9Z"
    />
  </g>
</svg>
