<?xml version="1.0" encoding="utf-8"?>
<!-- Generator: Adobe Illustrator 19.2.1, SVG Export Plug-In . SVG Version: 6.00 Build 0)  -->
<svg
  version="1.1"
  id="layer"
  xmlns="http://www.w3.org/2000/svg"
  xmlns:xlink="http://www.w3.org/1999/xlink"
  x="0px"
  y="0px"
  viewBox="0 0 652 652"
  style="enable-background: new 0 0 652 652"
  xml:space="preserve"
>
  <g>
    <path
      class="st0"
      d="M607.4,264.7l5.7,7.3h-4l-5.2-6.9v6.9h-3.3v-17.4h3.5c4.7,0,7.2,1.7,7.2,5.2c0,1.2-0.3,2.2-1,3.1
		c-0.6,0.9-1.5,1.5-2.5,1.8L607.4,264.7z M603.8,262.3h0.6c2.4,0,3.6-0.8,3.6-2.5c0-1.5-1.2-2.2-3.5-2.3h-0.7V262.3z M605.7,248.1
		c2.9,0,5.5,0.7,7.8,2c2.3,1.3,4.1,3.1,5.4,5.4c1.3,2.3,2,4.8,2.1,7.7c0,2.8-0.7,5.4-2,7.6c-1.3,2.3-3.1,4.1-5.4,5.4
		c-2.2,1.4-4.8,2-7.6,2.1c-2.8,0-5.4-0.7-7.6-2.1c-2.3-1.4-4.1-3.2-5.4-5.4c-1.4-2.3-2-4.8-2.1-7.7c0-2.8,0.7-5.3,2-7.6
		c1.3-2.3,3.1-4.1,5.3-5.4C600.5,248.8,602.9,248.1,605.7,248.1 M605.9,250.3h-0.2c-2.3,0-4.4,0.6-6.2,1.8c-1.9,1.1-3.4,2.7-4.5,4.7
		c-1.1,1.9-1.7,4.1-1.7,6.5c0,2.4,0.6,4.6,1.7,6.5c1.1,1.9,2.6,3.5,4.5,4.6c1.9,1.1,4,1.7,6.4,1.8c2.3,0,4.4-0.6,6.3-1.8
		c1.9-1.1,3.4-2.7,4.5-4.6c1.1-1.9,1.7-4.1,1.7-6.5c0-2.4-0.6-4.6-1.7-6.5c-1.1-1.9-2.6-3.5-4.5-4.6
		C610.4,250.9,608.3,250.3,605.9,250.3"
    />
    <path
      class="st1"
      d="M259.8,312.1h20.4v-4.9c0-11.5-1.6-23.2-21.3-23.2c-10.5,0-12.9,2.8-16.7,9.9h-1.1v-9.2h-22.1v62.8H242v-37.6
		c0-5.1,2-10,10.5-10c7.7,0,7.4,4.9,7.4,9.3V312.1z"
    />
    <polygon
      class="st1"
      points="432.5,278.6 468.2,278.6 468.2,257.8 371,257.8 371,278.6 409,278.6 409,347.5 432.5,347.5 	"
    />
    <rect x="359.7" y="304.8" class="st1" width="36.8" height="18.5" />
    <polygon
      class="st1"
      points="308.7,257.9 285.6,257.9 285.6,347.5 308.7,347.5 308.7,322.1 333.5,347.1 361.3,347.1 329.4,314.8 
		361.5,284.8 330.6,284.8 308.7,308.3 	"
    />
    <polygon
      class="st1"
      points="554.6,257.5 531.5,257.5 531.5,347.2 554.6,347.2 554.6,321.7 579.4,346.8 607.2,346.8 575.3,314.5 
		607.4,284.4 576.5,284.4 554.6,308 	"
    />
    <path
      class="st1"
      d="M524.7,315c0-25.6-9.6-32.2-41.9-32.2c-34.5,0-42,8-42,32.2c0,23.4,8.2,32,42,32c12.4,0,22.9-0.7,30.3-3.7
		c7.4-3.1,11.6-8.5,11.6-17.9h-23.5c0,6.6-9.8,7.3-18.5,7.3c-11.6,0-18.1-1.9-18.1-12.9h60V315z M464.7,306.1
		c0.3-8.2,8.3-9.9,18.3-9.9c9.5,0,18.4,0.6,18.4,9.9H464.7z"
    />
    <path
      class="st1"
      d="M214.1,316.1c0-25.6-9.6-32.1-41.9-32.1c-34.5,0-42,8-42,32.1c0,23.4,8.2,32,42,32c12.4,0,22.9-0.7,30.3-3.7
		c7.4-3.1,11.6-8.5,11.6-17.9h-23.5c0,6.6-9.8,7.3-18.5,7.3c-11.6,0-18.1-1.9-18.1-12.9h60V316.1z M154.2,307.3
		c0.3-8.3,8.3-9.9,18.3-9.9c9.5,0,18.4,0.6,18.4,9.9H154.2z"
    />
    <path
      class="st1"
      d="M115.7,302.1c0,0,8.8-2.6,8.7-21.3c0-19.6-14.4-22.9-38.8-22.9H21.2v89.6h65.1c26,0,40.1-3,40.1-25
		C126.4,313.5,125.2,302.1,115.7,302.1 M87.6,327.1H42.7v-14.4H87c12.7,0,14.4,0.7,14.4,7.2C101.4,326.6,99.7,327.1,87.6,327.1
		 M92.1,292.5H42.9v-13.6h49.6c8.6,0,10.3,1,10.3,6.4C102.8,291.3,101,292.5,92.1,292.5"
    />
    <path
      d="M34.7,383.4h-6.5l3.3-7.3L34.7,383.4z M36,386.4l2.3,5.2h3.5l-10.3-22.9l-10.6,22.9h3.5l2.4-5.2H36z"
    />
    <polygon
      points="89.8,368.7 105.5,385.1 105.5,370.1 108.8,370.1 108.8,393 93.1,376.6 93.1,391.7 89.8,391.7 	"
    />
    <polygon
      points="135.8,373.2 135.8,378.4 144.1,378.4 144.1,381.4 135.8,381.4 135.8,388.6 144.4,388.6 144.4,391.7 132.5,391.7 
		132.5,370.1 144.4,370.1 144.4,373.2 	"
    />
    <polygon
      points="165.9,370.1 169.5,370.1 173.7,377.4 177.9,370.1 181.7,370.1 175.5,380.4 182,391.7 178.4,391.7 173.6,383.4 
		168.7,391.7 165,391.7 171.8,380.4 	"
    />
    <path
      d="M214.8,383.4h-6.5l3.3-7.3L214.8,383.4z M216.1,386.4l2.3,5.2h3.5l-10.3-22.9L201,391.7h3.5l2.4-5.2H216.1z"
    />
    <polygon
      points="243.2,368.7 258.9,385.1 258.9,370.1 262.2,370.1 262.2,393 246.5,376.6 246.5,391.7 243.2,391.7 	"
    />
    <path
      d="M295.5,374.9c-1-1.7-1.7-2.1-3.2-2.1c-1.8,0-3.1,1.1-3.1,2.7c0,0.7,0.3,1.3,1,1.8c0.7,0.5,0.4,0.3,3.5,1.6
		c3.4,1.5,5,3.4,5,6.3c0,4-2.9,7-6.8,7c-3.8,0-6.4-2.3-7-6.4l3.3-0.7c0.2,1.3,0.3,1.8,0.6,2.4c0.5,1,1.8,1.7,3.1,1.7
		c2,0,3.5-1.5,3.5-3.6c0-1.2-0.5-2.2-1.5-2.8c-0.5-0.3-1-0.6-1.6-0.8l-0.7-0.3l-0.7-0.3l-0.7-0.3c-3-1.3-4.4-3-4.4-5.4
		c0-3.3,2.8-5.7,6.4-5.7c2.6,0,4.4,1.1,5.8,3.6L295.5,374.9z"
    />
    <path
      d="M363.8,375.1c-2-1.7-3.7-2.4-5.8-2.4c-4.4,0-7.9,3.6-7.9,8.2c0,4.6,3.5,8.1,8,8.1c2,0,3.6-0.7,5.7-2.5v3.9
		c-1.9,1.1-3.8,1.6-5.8,1.6c-6.3,0-11.2-4.9-11.2-11.2c0-6,5.1-11.1,11.2-11.1c2.3,0,3.8,0.4,5.8,1.6V375.1z"
    />
    <path
      d="M396.5,372.8c4.5,0,8,3.5,8,8.2c0,4.4-3.6,8.1-8,8.1c-4.4,0-8-3.6-8-8.1C388.5,376.3,392,372.8,396.5,372.8 M396.5,369.7
		c-6.3,0-11.3,5-11.3,11.3c0,6.2,5,11.1,11.3,11.1c6.2,0,11.2-5,11.2-11.2C407.7,374.8,402.7,369.7,396.5,369.7"
    />
    <polygon
      points="434.2,368.5 441.6,385.2 449.2,368.5 453.3,391.7 450,391.7 447.9,378.7 441.5,392.7 435.3,378.7 433,391.7 
		429.7,391.7 	"
    />
    <path
      d="M479.7,379.9v-6.8h1.1c3.1,0,4.6,1.1,4.6,3.3c0,2.4-1.4,3.5-4.5,3.5H479.7z M479.7,382.9h1.5c4.4,0,7.3-2.5,7.3-6.4
		c0-2-0.9-3.9-2.3-5c-1.4-1-2.8-1.4-6-1.4h-3.7v21.5h3.3V382.9z"
    />
    <path
      d="M520.2,383.4h-6.5l3.3-7.3L520.2,383.4z M521.5,386.4l2.2,5.2h3.6L517,368.8l-10.6,22.9h3.5l2.4-5.2H521.5z"
    />
    <polygon
      points="548.6,368.7 564.3,385.1 564.3,370.1 567.5,370.1 567.5,393 551.9,376.6 551.9,391.7 548.6,391.7 	"
    />
    <polygon
      points="588.6,370.1 592.4,370.1 597.3,378.8 602.3,370.1 606,370.1 598.9,382.4 598.9,391.7 595.7,391.7 595.7,382.4 	"
    />
  </g>
</svg>
