<?xml version="1.0" encoding="UTF-8"?>
<svg
  xmlns="http://www.w3.org/2000/svg"
  version="1.1"
  viewBox="0 0 378.68 98.24"
>
  <g>
    <g id="Layer_1">
      <g>
        <polygon
          points="146.27 60.28 176.12 60.28 176.12 68.57 160.1 68.57 160.1 74.2 175.66 74.2 175.66 82.34 160.1 82.34 160.1 88.43 175.96 88.43 175.96 96.91 146.27 96.91 146.27 60.28"
        />
        <path
          d="M130.32,60.31h-19.68v36.62h13.73v-10.98h5.95c9.97,0,14.42-4.22,14.42-12.82s-4.31-12.82-14.42-12.82ZM126.39,77.7h-2.01v-9.16h2.01c3.82,0,4.81,1.85,4.81,4.58,0,3.01-1.08,4.58-4.81,4.58Z"
        />
        <polygon
          class="cls-1"
          points="182.91 30.67 182.91 0 110.64 27.87 110.64 58.54 182.91 30.67"
        />
        <path
          d="M210.2,63.61c-1.97-1.97-5.08-3.3-9.72-3.3h-22.2v36.62h13.96v-28.5h0s1.12,0,1.12,0c3.48,0,3.79.32,4.54,1.38,1.04,1.47,1.08,5.27-.26,6.76-1.11,1.24-2.32,1.44-3.68,1.47h-.26s-1.43.01-1.43.01l8.23,18.88h15.57l-9.41-16.93h0c1.93-.72,3.29-1.65,4.47-3.27,1.07-1.48,1.74-3.92,1.74-6.43s-.88-4.9-2.67-6.69Z"
        />
        <g>
          <path d="M91.04,58.89s.02,0,.03,0c.01,0,.02,0,.03,0h-.06Z" />
          <path d="M108.59,78.65h0v.06-.06Z" />
          <path
            d="M91.06,58.89c-6.94-.01-11.41,1.31-14.1,4.71-2.98,3.78-3.41,7.91-3.42,15.02v-.06c0,7.08-.17,10.71,3.21,14.87,2.75,3.4,7.26,4.82,14.16,4.82s11.48-1.38,14.25-4.71c3.11-3.72,3.43-7.85,3.43-14.88,0-7.22.06-11.11-3.14-15.05-2.76-3.4-7.47-4.71-14.38-4.71ZM91.11,89.95c-1.44,0-3.23-.69-3.23-4.61v.03s-.01-13.51-.01-13.51c0-3.91,1.81-4.6,3.23-4.6s3.18.69,3.18,4.6v13.51-.03c.01,3.92-1.8,4.61-3.16,4.61Z"
          />
        </g>
        <path
          d="M17.77,89.98h-.02c1.42,0,3.09-.69,3.09-4.61h0l-.02.03.02-3.12h14.09l.02.03c-.02,12.43-4.2,15.91-17.29,15.93h.06c-6.9,0-11.95-1.33-14.79-4.92C-.11,89.5,0,85.4,0,78.85v.06c-.01-8.96.78-13.17,4.85-16.72,2.72-2.38,6.96-3.26,12.86-3.25h-.06c13.07,0,17.28,4.46,17.27,15.1h0-14.09l-.02-2.14h0c0-3.91-1.64-4.61-3.08-4.61-1.33,0-3.23.72-3.23,4.61h0v13.5-.03h.01c0,3.94,1.87,4.61,3.23,4.61h.02"
        />
        <g>
          <path
            d="M54.26,58.89c-6.94-.01-11.41,1.31-14.1,4.71-2.99,3.78-3.41,7.91-3.42,15.02v-.06c0,7.08-.17,10.71,3.2,14.87,2.75,3.4,7.26,4.82,14.16,4.82s11.48-1.38,14.25-4.71c3.11-3.72,3.43-7.85,3.43-14.88s.06-11.11-3.14-15.05c-2.77-3.4-7.47-4.71-14.38-4.71ZM54.3,89.95c-1.44,0-3.23-.69-3.23-4.61v.03s-.01-13.51-.01-13.51c0-3.91,1.82-4.6,3.23-4.6s3.18.69,3.18,4.6v13.51-.03c.01,3.92-1.8,4.61-3.16,4.61Z"
          />
          <path d="M71.79,78.65h0v.06-.06Z" />
          <path
            class="cls-2"
            d="M54.23,58.89s.02,0,.03,0c.01,0,.02,0,.03,0h-.06Z"
          />
        </g>
      </g>
      <g>
        <path
          d="M235.9,81.13h9.87c2.79,0,5.58,1.24,5.58,4.5,0,3.77-2.17,5.43-5.94,5.43h-9.51v-9.92ZM228.45,97.46h15.71c7.6,0,9.61-1.29,11.73-3.36,1.96-1.91,3.2-4.7,3.2-7.65,0-3.67-1.19-7.29-5.74-8.99,1.55-.78,4.55-2.27,4.55-7.6,0-3.82-2.33-9.51-11.42-9.51h-18.04v37.11ZM235.9,66.76h8.89c3.51,0,5.68.93,5.68,3.98s-2.43,4.13-5.48,4.13h-9.1v-8.11Z"
        />
        <path d="M276.62,86.34h-14.42v-6.72h14.42v6.72Z" />
        <path d="M288.66,90.74h18.45v6.72h-26.2v-37.11h7.75v30.39Z" />
        <path
          d="M318.32,69.96v27.49h-7.24v-27.49h7.24ZM318.32,66.71h-7.24v-6.72h7.24v6.72Z"
        />
        <path
          d="M349.07,97.46h-7.23v-16.69c0-2.02-.1-5.43-4.7-5.43-3.2,0-5.68,2.17-5.68,6.36v15.76h-7.23v-27.49h6.92v4.03h.1c.98-1.65,3.05-4.75,8.27-4.75s9.56,3.15,9.56,9.2v19.02Z"
        />
        <path
          d="M360.03,80.97c.41-3.62,2.22-5.79,5.63-5.79,2.33,0,5.17,1.34,5.58,5.79h-11.21ZM370.93,89.39c-.57,1.96-2.64,3-4.65,3-5.84,0-6.25-4.65-6.46-6.72h18.86v-1.29c0-12.56-7.49-15.14-12.92-15.14-12.04,0-13.18,10.59-13.18,13.9,0,11.32,5.94,15.04,13.7,15.04,4.7,0,10.18-2.17,12.09-8.79h-7.44Z"
        />
      </g>
    </g>
  </g>
</svg>
