<svg viewBox="0 0 723.665 143.219">
  <title>WilsonPro</title>
  <g>
    <path
      fill-rule="evenodd"
      clip-rule="evenodd"
      fill="#0176BF"
      d="M54.541,0c0.028,0.387,0.374,0.537,0.601,0.763
		c6.984,6.999,13.971,13.996,20.983,20.967c0.55,0.547,0.53,0.809-0.008,1.346C63.529,35.63,50.963,48.209,38.374,60.764
		c-0.592,0.59-0.637,0.991-0.317,1.78c0.744,1.832,1.933,3.075,3.719,3.928c1.71,0.814,1.663,0.916,2.981-0.403
		c12.245-12.247,24.495-24.488,36.727-36.751c0.543-0.545,0.814-0.632,1.413-0.028c6.923,6.971,13.875,13.917,20.847,20.84
		c0.582,0.578,0.556,0.85-0.008,1.415c-12.46,12.424-24.892,24.872-37.355,37.298c-0.589,0.584-0.737,1.04-0.22,1.68
		c0.018,0.026,0.033,0.053,0.044,0.079c0.814,2.199,2.37,3.62,4.535,4.471c0.562,0.223,0.881,0.263,1.334-0.204
		c2.076-2.133,4.197-4.224,6.303-6.327C88.887,78.028,99.4,67.523,109.893,56.998c0.565-0.566,0.858-0.65,1.475-0.028
		c6.989,7.038,14.005,14.048,21.037,21.042c0.52,0.52,0.595,0.769,0.026,1.333c-17.746,17.647-35.47,35.313-53.197,52.98
		c-0.212,0.214-0.486,0.384-0.556,0.713c-13.144,0-26.287,0-39.431,0c0.026-0.306,0.079-0.608,0.079-0.91
		c0.003-12.461-0.006-24.919,0.021-37.378c0.003-0.844-0.218-1.063-1.062-1.063c-12.459,0.026-24.917,0.02-37.378,0.022
		c-0.304,0-0.605,0.05-0.907,0.076c0-13.2,0-26.407,0-39.613c0.343-0.044,0.487-0.348,0.695-0.555
		C18.343,35.981,35.986,18.341,53.627,0.697C53.832,0.49,54.144,0.351,54.172,0C54.295,0,54.418,0,54.541,0z"
    />
    <path
      fill-rule="evenodd"
      clip-rule="evenodd"
      d="M187.299,86.256c1.812-6.85,3.619-13.656,5.416-20.467
		c2.048-7.756,4.093-15.515,6.117-23.28c0.163-0.62,0.391-0.879,1.097-0.866c2.855,0.049,5.71,0.051,8.565-0.001
		c0.73-0.014,0.995,0.224,1.167,0.894c3.38,13.108,6.782,26.214,10.179,39.315c0.384,1.483,0.779,2.961,1.208,4.589
		c0.491-1.195,0.665-2.337,0.934-3.446c3.287-13.515,6.556-27.032,9.816-40.552c0.131-0.545,0.3-0.802,0.94-0.797
		c4.485,0.034,8.968,0.031,13.451,0.004c0.692-0.003,0.797,0.145,0.605,0.821c-5.777,20.26-11.538,40.524-17.283,60.796
		c-0.162,0.567-0.39,0.771-0.996,0.766c-4.147-0.026-8.292-0.033-12.438,0.006c-0.71,0.006-0.907-0.256-1.068-0.89
		c-3.479-13.747-6.984-27.489-10.484-41.232c-0.028-0.108-0.073-0.21-0.204-0.601c-0.464,1.809-0.868,3.353-1.262,4.901
		c-3.139,12.347-6.283,24.694-9.409,37.047c-0.145,0.57-0.368,0.774-0.979,0.769c-4.145-0.026-8.292-0.036-12.436,0.006
		c-0.712,0.006-0.93-0.269-1.104-0.879c-4.053-14.165-8.125-28.317-12.191-42.476c-1.741-6.062-3.468-12.128-5.237-18.184
		c-0.218-0.745-0.049-0.856,0.662-0.852c4.331,0.029,8.659,0.044,12.988-0.01c0.799-0.01,1.014,0.275,1.182,0.968
		c3.477,14.411,6.979,28.816,10.476,43.228C187.045,85.967,187.007,86.138,187.299,86.256z"
    />
    <path
      fill-rule="evenodd"
      clip-rule="evenodd"
      d="M485.041,63.652c0,0.326,0,0.651,0,0.976
		c0,12.773-0.014,25.546,0.022,38.321c0.004,0.921-0.262,1.102-1.125,1.089c-3.773-0.046-7.556-0.032-11.329-0.006
		c-0.632,0.006-0.832-0.155-0.832-0.815c0.018-20.232,0.018-40.467,0-60.701c0-0.676,0.157-0.876,0.863-0.871
		c3.926,0.038,7.858,0.034,11.789,0.003c0.71-0.005,1.155,0.187,1.589,0.778c9.11,12.417,18.244,24.814,27.378,37.217
		c0.229,0.318,0.472,0.627,0.866,1.145c0-0.531,0-0.847,0-1.161c0-12.251,0.006-24.503-0.022-36.754
		c-0.004-0.862,0.239-1.045,1.06-1.036c3.809,0.044,7.615,0.036,11.422,0.003c0.649-0.003,0.814,0.174,0.814,0.817
		c-0.02,20.266-0.02,40.53,0,60.795c0,0.591-0.143,0.789-0.757,0.782c-3.809-0.026-7.617-0.023-11.428,0
		c-0.452,0-0.682-0.172-0.94-0.522c-9.606-13.229-19.229-26.452-28.846-39.675c-0.104-0.145-0.214-0.289-0.32-0.433
		C485.178,63.621,485.106,63.635,485.041,63.652z"
    />
    <path
      fill-rule="evenodd"
      clip-rule="evenodd"
      d="M394.845,72.997c0.089-8.333,2.516-15.815,8.229-22.036
		c4.984-5.429,11.259-8.502,18.479-9.612c7.201-1.104,14.222-0.389,20.832,2.81c9.515,4.604,15.093,12.268,16.971,22.609
		c1.287,7.089,0.61,14.034-2.488,20.581c-4.637,9.797-12.55,15.41-23.11,17.28c-7.668,1.358-15.132,0.515-22.115-3.069
		c-9.073-4.656-14.342-12.188-16.231-22.149C395.01,77.296,394.826,75.157,394.845,72.997z M427.363,52.595
		c-7.894,0.008-14.303,4.25-17.181,11.423c-1.736,4.322-2.041,8.795-1.32,13.374c1.501,9.502,8.765,15.911,18.266,16.075
		c8.146,0.142,14.84-4.414,17.677-12.045c1.541-4.151,1.78-8.415,1.105-12.77C444.417,59.047,436.967,52.582,427.363,52.595z"
    />
    <path
      fill-rule="evenodd"
      clip-rule="evenodd"
      d="M342.445,85.118c3.268,3.317,7.033,5.724,11.429,7.072
		c4.385,1.346,8.828,1.799,13.331,0.673c1.66-0.417,3.165-1.168,4.379-2.409c2.469-2.517,2.126-5.937-0.827-7.847
		c-2.269-1.471-4.877-2.104-7.443-2.81c-4.165-1.137-8.434-1.877-12.516-3.321c-2.172-0.769-4.271-1.687-6.208-2.95
		c-5.598-3.653-7.778-8.97-7.084-15.417c0.862-8.031,5.855-12.805,13.106-15.523c3.845-1.443,7.871-1.81,11.948-1.666
		c5.679,0.201,11.123,1.348,16.182,4.035c2.175,1.159,4.17,2.573,6.028,4.195c0.406,0.355,0.525,0.589,0.143,1.086
		c-2.203,2.836-4.377,5.693-6.52,8.572c-0.41,0.55-0.62,0.489-1.1,0.089c-5.605-4.716-12.11-6.659-19.373-6.185
		c-1.474,0.097-2.891,0.51-4.188,1.271c-1,0.587-1.813,1.362-2.338,2.409c-1.175,2.349-0.583,4.59,1.634,5.99
		c2.105,1.331,4.508,1.882,6.891,2.462c4.633,1.133,9.346,2.002,13.828,3.695c2.071,0.785,4.058,1.733,5.889,2.987
		c4.952,3.387,7.181,8.171,7.022,14.08c-0.254,9.202-5.132,15.752-14.038,18.24c-10.635,2.967-20.953,1.825-30.733-3.423
		c-2.283-1.225-4.288-2.846-6.147-4.65c-0.358-0.349-0.496-0.585-0.148-1.063C337.877,91.556,340.125,88.375,342.445,85.118z"
    />
    <path
      fill-rule="evenodd"
      clip-rule="evenodd"
      d="M660.167,72.97c0.062-7.833,2.098-15.029,7.097-21.196
		c4.874-6.019,11.266-9.417,18.896-10.514c6.049-0.868,11.951-0.293,17.589,2.112c7.503,3.205,12.812,8.666,15.793,16.236
		c3.725,9.456,3.644,18.995-0.585,28.256c-4.513,9.888-12.426,15.471-23.163,16.99c-6.467,0.915-12.754,0.157-18.662-2.705
		c-8.973-4.348-14.065-11.726-16.183-21.315C660.377,78.248,660.125,75.623,660.167,72.97z M713.927,73.03
		c-0.043-1.871-0.155-3.735-0.474-5.585c-1.811-10.553-8.977-18.792-20.43-19.642c-8.982-0.666-17.467,3.13-21.812,12.098
		c-2.922,6.037-3.485,12.414-2.331,18.946c1.927,10.836,9.544,18.785,20.624,19.441c7.397,0.44,13.745-1.864,18.57-7.641
		C712.318,85.567,713.852,79.528,713.927,73.03z"
    />
    <path
      fill-rule="evenodd"
      clip-rule="evenodd"
      d="M630.795,78.543c5.568,8.418,11.082,16.758,16.708,25.265
		c-1.917,0-3.624,0-5.331,0c-0.983,0-1.971-0.075-2.947,0.025c-0.683,0.072-0.978-0.235-1.293-0.728
		c-4.965-7.707-9.946-15.399-14.896-23.115c-0.364-0.567-0.739-0.751-1.395-0.744c-3.499,0.031-6.997,0.038-10.496,0
		c-0.807-0.014-1.077,0.15-1.073,1.03c0.039,7.581,0.01,15.168,0.043,22.75c0.004,0.795-0.168,1.043-0.998,1.011
		c-1.93-0.068-3.866-0.059-5.803,0c-0.787,0.02-1.021-0.158-1.017-0.995c0.038-7.491,0.022-14.981,0.022-22.471
		c0-12.622,0.01-25.24-0.017-37.859c0-0.787,0.128-1.079,1.021-1.073c7.984,0.039,15.967,0.013,23.948,0.028
		c4.148,0.008,8.106,0.812,11.661,3.082c4.658,2.975,7.105,7.332,7.802,12.726c0.524,4.099,0.11,8.098-1.785,11.827
		c-2.651,5.205-7.063,7.988-12.701,9.005C631.806,78.389,631.355,78.451,630.795,78.543z M610.287,60.517
		c0,3.651,0.02,7.307-0.018,10.96c-0.01,0.732,0.128,0.985,0.93,0.978c5.159-0.043,10.317-0.02,15.473-0.023
		c0.8,0,1.593-0.039,2.384-0.17c4.303-0.723,7.598-2.865,9.181-7.017c1.627-4.288,1.246-8.48-1.641-12.179
		c-2.489-3.19-6.004-4.332-9.912-4.369c-5.192-0.046-10.378,0.005-15.57-0.03c-0.722-0.005-0.846,0.23-0.84,0.89
		C610.306,53.21,610.287,56.863,610.287,60.517z"
    />
    <path
      fill-rule="evenodd"
      clip-rule="evenodd"
      d="M288.309,72.879c0-10.069,0.008-20.14-0.016-30.211
		c-0.002-0.767,0.123-1.043,0.983-1.029c3.713,0.056,7.431,0.052,11.144,0.002c0.899-0.014,1.17,0.167,1.17,1.132
		c-0.036,16.148-0.016,32.297-0.052,48.448c-0.001,0.969,0.275,1.12,1.16,1.12c8.074-0.036,16.148-0.007,24.224-0.043
		c0.794-0.004,0.945,0.227,0.937,0.968c-0.042,3.282-0.041,6.57-0.002,9.853c0.01,0.729-0.19,0.916-0.912,0.913
		c-12.589-0.021-25.176-0.021-37.764,0.006c-0.778,0-0.885-0.272-0.883-0.945C288.316,93.024,288.309,82.948,288.309,72.879z"
    />
    <path
      fill-rule="evenodd"
      clip-rule="evenodd"
      d="M544.463,72.702c0-10.008,0.014-20.017-0.02-30.023
		c-0.008-0.865,0.243-1.037,1.06-1.034c7.951,0.029,15.901,0.011,23.851,0.021c4.022,0.003,7.87,0.763,11.335,2.921
		c4.696,2.927,7.339,7.243,8.136,12.645c0.844,5.727-0.35,10.997-4.168,15.485c-3.086,3.63-7.131,5.504-11.791,6.147
		c-2.843,0.388-5.7,0.171-8.553,0.196c-3.715,0.033-7.431,0.033-11.146-0.012c-0.786-0.01-0.939,0.229-0.939,0.975
		c0.027,7.61,0.006,15.225,0.033,22.839c0.006,0.749-0.144,0.99-0.939,0.964c-1.992-0.058-3.991-0.058-5.985,0
		c-0.749,0.023-0.889-0.222-0.887-0.918C544.469,92.839,544.463,82.771,544.463,72.702z M552.244,60.529
		c0,3.653,0.023,7.305-0.016,10.958c-0.01,0.749,0.157,0.972,0.939,0.965c5.126-0.04,10.251-0.021,15.378-0.017
		c0.924,0.003,1.839-0.066,2.751-0.207c4.688-0.735,8.317-4.023,9.426-8.558c1.188-4.874-0.479-9.854-4.228-12.589
		c-2.317-1.688-4.961-2.366-7.782-2.384c-5.214-0.035-10.432,0.007-15.65-0.031c-0.754-0.005-0.834,0.271-0.83,0.905
		C552.261,53.223,552.244,56.876,552.244,60.529z"
    />
    <path
      fill-rule="evenodd"
      clip-rule="evenodd"
      d="M271.373,72.879c0,10.035-0.013,20.078,0.023,30.117
		c0.001,0.883-0.273,1.047-1.078,1.038c-3.776-0.039-7.554-0.029-11.33-0.003c-0.648,0.006-0.891-0.105-0.89-0.841
		c0.021-20.23,0.021-40.465,0-60.7c0-0.717,0.215-0.85,0.878-0.843c3.838,0.031,7.677,0.038,11.513-0.005
		c0.755-0.008,0.899,0.229,0.898,0.929C271.365,52.673,271.373,62.775,271.373,72.879z"
    />
  </g>
</svg>
