<?xml version="1.0" encoding="UTF-8"?><svg id="Layer_1" xmlns="http://www.w3.org/2000/svg" xmlns:xlink="http://www.w3.org/1999/xlink" viewBox="0 0 818.05 378.6"><defs><style>.cls-1{fill:url(#linear-gradient-15);}.cls-2{fill:url(#linear-gradient-13);}.cls-3{fill:url(#linear-gradient-28);}.cls-4{clip-path:url(#clippath-4);}.cls-5{fill:url(#linear-gradient-2);}.cls-6{fill:url(#linear-gradient-25);}.cls-7{fill:#054366;}.cls-8{fill:url(#linear-gradient-10);}.cls-9{fill:url(#linear-gradient-12);}.cls-10{fill:url(#linear-gradient-27);}.cls-11{fill:#05515f;}.cls-12,.cls-13{fill:#fff;}.cls-14{fill:url(#linear-gradient-26);}.cls-15{fill:none;}.cls-16{fill:url(#linear-gradient-4);}.cls-17{fill:url(#linear-gradient-30);}.cls-18{fill:url(#New_Gradient_Swatch_copy_2);}.cls-19{fill:url(#linear-gradient-3);}.cls-20{fill:url(#linear-gradient-34);}.cls-21{clip-path:url(#clippath-1);}.cls-22{fill:url(#linear-gradient-5);}.cls-23{fill:url(#linear-gradient-22);}.cls-24{fill:url(#linear-gradient-24);}.cls-25{fill:url(#linear-gradient-33);}.cls-26{fill:url(#linear-gradient-8);}.cls-27{fill:#0f4b66;}.cls-13{filter:url(#drop-shadow-1);}.cls-28{fill:#02465d;}.cls-29{clip-path:url(#clippath-3);}.cls-30{fill:url(#linear-gradient-14);}.cls-31{fill:url(#linear-gradient-29);}.cls-32{fill:url(#linear-gradient-20);}.cls-33{fill:url(#linear-gradient-17);}.cls-34{fill:url(#linear-gradient-7);}.cls-35{fill:url(#linear-gradient-9);}.cls-36{fill:url(#linear-gradient-11);}.cls-37{fill:url(#linear-gradient-19);}.cls-38{fill:url(#linear-gradient-6);}.cls-39{fill:url(#linear-gradient-21);}.cls-40{clip-path:url(#clippath-2);}.cls-41{fill:url(#linear-gradient-32);}.cls-42{fill:url(#linear-gradient-16);}.cls-43{fill:url(#linear-gradient);}.cls-44{fill:url(#linear-gradient-23);}.cls-45{fill:url(#linear-gradient-31);}.cls-46{clip-path:url(#clippath);}.cls-47{fill:url(#linear-gradient-18);}</style><clipPath id="clippath"><rect class="cls-15" x="98.98" y="-339.02" width="630.08" height="810" transform="translate(348.04 480) rotate(-90)"/></clipPath><linearGradient id="linear-gradient" x1="349.46" y1="100.81" x2="501.4" y2="100.81" gradientTransform="translate(348.04 480) rotate(-90)" gradientUnits="userSpaceOnUse"><stop offset=".27" stop-color="#035e72"/><stop offset=".84" stop-color="#044c67"/></linearGradient><linearGradient id="linear-gradient-2" x1="349.46" y1="54.23" x2="501.4" y2="54.23" gradientTransform="translate(348.04 480) rotate(-90)" gradientUnits="userSpaceOnUse"><stop offset=".16" stop-color="#0b4558"/><stop offset="1" stop-color="#053a4c"/></linearGradient><linearGradient id="linear-gradient-3" x1="72.52" y1="112.16" x2="199.49" y2="112.16" gradientTransform="translate(348.04 480) rotate(-90)" gradientUnits="userSpaceOnUse"><stop offset=".09" stop-color="#1585bf"/><stop offset=".25" stop-color="#137db3"/><stop offset=".54" stop-color="#106a94"/><stop offset=".92" stop-color="#0c4c63"/><stop offset="1" stop-color="#0b4558"/></linearGradient><linearGradient id="linear-gradient-4" x1="349.53" y1="100.81" x2="501.47" y2="100.81" xlink:href="#linear-gradient"/><linearGradient id="New_Gradient_Swatch_copy_2" x1="461.65" y1="168.5" x2="529.21" y2="285.52" gradientTransform="translate(348.04 480) rotate(-90)" gradientUnits="userSpaceOnUse"><stop offset=".46" stop-color="#1585bf"/><stop offset=".56" stop-color="#137db3"/><stop offset=".73" stop-color="#106a94"/><stop offset=".95" stop-color="#0c4c63"/><stop offset="1" stop-color="#0b4558"/></linearGradient><linearGradient id="linear-gradient-5" x1="349.53" y1="54.23" x2="501.47" y2="54.23" xlink:href="#linear-gradient-2"/><linearGradient id="linear-gradient-6" x1="286.71" y1="230.58" x2="349.53" y2="230.58" gradientTransform="translate(348.04 480) rotate(-90)" gradientUnits="userSpaceOnUse"><stop offset=".44" stop-color="#06384a"/><stop offset="1" stop-color="#044c67"/></linearGradient><linearGradient id="linear-gradient-7" x1="446.91" y1="476.62" x2="446.91" y2="301.54" gradientTransform="translate(348.04 480) rotate(-90)" gradientUnits="userSpaceOnUse"><stop offset=".37" stop-color="#055269"/><stop offset=".51" stop-color="#07556d"/><stop offset=".67" stop-color="#0e5e7a"/><stop offset=".8" stop-color="#186c8d"/></linearGradient><linearGradient id="linear-gradient-8" x1="372.72" y1="308.87" x2="501.47" y2="308.87" gradientTransform="translate(348.04 480) rotate(-90)" gradientUnits="userSpaceOnUse"><stop offset=".37" stop-color="#055269"/><stop offset=".84" stop-color="#01445a"/></linearGradient><linearGradient id="linear-gradient-9" x1="373.96" y1="106.33" x2="373.96" y2="354.82" gradientTransform="translate(348.04 480) rotate(-90)" gradientUnits="userSpaceOnUse"><stop offset=".24" stop-color="#156888"/><stop offset=".56" stop-color="#136585"/><stop offset=".75" stop-color="#0c5c7d"/><stop offset=".91" stop-color="#024e70"/><stop offset=".94" stop-color="#004b6d"/></linearGradient><linearGradient id="linear-gradient-10" x1="373.96" y1="178.47" x2="373.96" y2="458.19" gradientTransform="translate(348.04 480) rotate(-90)" gradientUnits="userSpaceOnUse"><stop offset=".43" stop-color="#156888"/><stop offset=".65" stop-color="#0f6080"/><stop offset="1" stop-color="#004b6d"/><stop offset="1" stop-color="#004b6d"/></linearGradient><linearGradient id="linear-gradient-11" x1="251.52" y1="354.82" x2="251.52" y2="166.75" gradientTransform="translate(348.04 480) rotate(-90)" gradientUnits="userSpaceOnUse"><stop offset=".28" stop-color="#044c67"/><stop offset=".72" stop-color="#045c7a"/></linearGradient><linearGradient id="linear-gradient-12" x1="154.75" y1="370.06" x2="103.05" y2="340.21" gradientTransform="translate(348.04 480) rotate(-90)" gradientUnits="userSpaceOnUse"><stop offset="0" stop-color="#111920"/><stop offset=".43" stop-color="#0f1f2a"/><stop offset="1" stop-color="#0d2c40"/></linearGradient><linearGradient id="linear-gradient-13" x1="98.88" y1="378.47" x2="303.55" y2="378.47" gradientTransform="translate(348.04 480) rotate(-90)" gradientUnits="userSpaceOnUse"><stop offset="0" stop-color="#111920"/><stop offset=".28" stop-color="#0f212a"/><stop offset=".76" stop-color="#0c3746"/><stop offset="1" stop-color="#0b4558"/></linearGradient><linearGradient id="linear-gradient-14" x1="220.02" y1="476.62" x2="220.02" y2="354.82" xlink:href="#linear-gradient-12"/><linearGradient id="linear-gradient-15" x1="288.91" y1="43.44" x2="457.77" y2="43.44" xlink:href="#linear-gradient-7"/><linearGradient id="linear-gradient-16" x1="288.91" y1="-67.35" x2="457.77" y2="-67.35" xlink:href="#linear-gradient-3"/><linearGradient id="linear-gradient-17" x1="72.52" y1="44.42" x2="288.91" y2="44.42" gradientTransform="translate(348.04 480) rotate(-90)" gradientUnits="userSpaceOnUse"><stop offset=".16" stop-color="#061d26"/><stop offset=".38" stop-color="#05212c"/><stop offset=".66" stop-color="#032e3d"/><stop offset="1" stop-color="#014359"/><stop offset="1" stop-color="#01445a"/></linearGradient><linearGradient id="linear-gradient-18" x1="288.91" y1="-108.95" x2="57.68" y2="-108.95" gradientTransform="translate(348.04 480) rotate(-90)" gradientUnits="userSpaceOnUse"><stop offset=".06" stop-color="#04586f"/><stop offset=".33" stop-color="#055369"/><stop offset=".66" stop-color="#0a4659"/><stop offset=".69" stop-color="#0b4558"/></linearGradient><linearGradient id="linear-gradient-19" x1="375.1" y1="-67.35" x2="520.18" y2="-67.35" gradientTransform="translate(348.04 480) rotate(-90)" gradientUnits="userSpaceOnUse"><stop offset="0" stop-color="#111920"/><stop offset=".23" stop-color="#0f212a"/><stop offset=".64" stop-color="#0c3746"/><stop offset=".85" stop-color="#0b4558"/></linearGradient><linearGradient id="linear-gradient-20" x1="546.03" y1="-115.98" x2="380.25" y2="-211.69" gradientTransform="translate(348.04 480) rotate(-90)" gradientUnits="userSpaceOnUse"><stop offset=".16" stop-color="#0e1012"/><stop offset=".79" stop-color="#053a4c"/></linearGradient><linearGradient id="linear-gradient-21" x1="271.04" y1="-163.62" x2="332.68" y2="-270.38" xlink:href="#linear-gradient-13"/><linearGradient id="linear-gradient-22" x1="57.68" y1="-108.95" x2="288.91" y2="-108.95" gradientTransform="translate(348.04 480) rotate(-90)" gradientUnits="userSpaceOnUse"><stop offset=".24" stop-color="#156888"/><stop offset=".58" stop-color="#0d5d7e"/><stop offset="1" stop-color="#004b6d"/></linearGradient><linearGradient id="linear-gradient-23" x1="57.68" y1="-270.77" x2="232.53" y2="-270.77" xlink:href="#linear-gradient-17"/><linearGradient id="linear-gradient-24" x1="14.53" y1="298.78" x2="186.9" y2=".23" xlink:href="#linear-gradient-13"/><linearGradient id="linear-gradient-25" x1="199.49" y1="73.65" x2="288.91" y2="73.65" gradientTransform="translate(348.04 480) rotate(-90)" gradientUnits="userSpaceOnUse"><stop offset=".09" stop-color="#1585bf"/><stop offset=".1" stop-color="#1483bd"/><stop offset=".38" stop-color="#106891"/><stop offset=".64" stop-color="#0d5572"/><stop offset=".85" stop-color="#0b495e"/><stop offset="1" stop-color="#0b4558"/></linearGradient><linearGradient id="linear-gradient-26" x1="243.04" y1="-229.49" x2="413.95" y2="-229.49" xlink:href="#linear-gradient-22"/><linearGradient id="linear-gradient-27" x1="501.4" y1="-304.49" x2="243.04" y2="-304.49" xlink:href="#linear-gradient-17"/><linearGradient id="linear-gradient-28" x1="243.04" y1="-270.77" x2="94.09" y2="-270.77" gradientTransform="translate(348.04 480) rotate(-90)" gradientUnits="userSpaceOnUse"><stop offset=".16" stop-color="#061d26"/><stop offset=".41" stop-color="#042835"/><stop offset=".86" stop-color="#01445a"/></linearGradient><linearGradient id="linear-gradient-29" x1="233.22" y1="-75.14" x2="335.01" y2="-176.94" gradientTransform="translate(348.04 480) rotate(-90)" gradientUnits="userSpaceOnUse"><stop offset="0" stop-color="#111920"/><stop offset=".23" stop-color="#0e2b37"/><stop offset=".52" stop-color="#0b3e4f"/><stop offset=".69" stop-color="#0b4558"/></linearGradient><linearGradient id="linear-gradient-30" x1="199.49" y1="202.65" x2="286.65" y2="202.65" xlink:href="#linear-gradient-3"/><linearGradient id="linear-gradient-31" x1="375.1" y1="-105.91" x2="567.96" y2="-105.91" xlink:href="#linear-gradient-3"/><linearGradient id="linear-gradient-32" x1="286.65" y1="73.65" x2="349.46" y2="73.65" gradientTransform="translate(348.04 480) rotate(-90)" gradientUnits="userSpaceOnUse"><stop offset=".09" stop-color="#066181"/><stop offset=".49" stop-color="#0a6384"/><stop offset=".93" stop-color="#176b8c"/><stop offset=".93" stop-color="#186c8d"/></linearGradient><clipPath id="clippath-1"><rect class="cls-15" x="531.47" y="158.82" width="287.55" height="222.2"/></clipPath><clipPath id="clippath-2"><path class="cls-15" d="M741.38,241.69c6.79,27.12-20.62,57.29-61.18,67.42-31.59,7.88-61.83,1.23-76.86-14.89,6.18,19.94,29.88,32.19,58.54,32.25h.44c8.42-.02,17.25-1.09,26.2-3.32,40.56-10.13,67.93-40.3,61.18-67.42-1.49-6.03-4.5-11.36-8.79-15.94.18.58.36,1.2.47,1.89"/></clipPath><linearGradient id="linear-gradient-33" x1="-1224.79" y1="459.07" x2="-1224.43" y2="459.07" gradientTransform="translate(472441.52 177131.51) scale(385.23 -385.23)" gradientUnits="userSpaceOnUse"><stop offset="0" stop-color="#897a2f"/><stop offset=".04" stop-color="#908030"/><stop offset=".11" stop-color="#a29232"/><stop offset=".2" stop-color="#c3ae41"/><stop offset=".29" stop-color="#ecd672"/><stop offset=".33" stop-color="#fee888"/><stop offset=".39" stop-color="#f1db78"/><stop offset=".51" stop-color="#cdb74e"/><stop offset=".68" stop-color="#8f7f30"/><stop offset=".7" stop-color="#897a2f"/><stop offset=".7" stop-color="#8b7b2f"/><stop offset=".77" stop-color="#b5a031"/><stop offset=".84" stop-color="#d5c059"/><stop offset=".9" stop-color="#ecd773"/><stop offset=".96" stop-color="#fae382"/><stop offset="1" stop-color="#fee888"/></linearGradient><clipPath id="clippath-3"><path class="cls-15" d="M681.9,207.51c-8.41.02-17.24,1.09-26.17,3.32-40.56,10.13-67.97,40.3-61.18,67.42,1.49,5.99,4.54,11.36,8.82,15.9-.18-.62-.36-1.23-.51-1.85-6.79-27.12,20.62-57.29,61.18-67.42,31.59-7.88,61.83-1.23,76.86,14.89-6.18-19.93-29.85-32.18-58.5-32.25h-.51Z"/></clipPath><linearGradient id="linear-gradient-34" x1="-1224.81" y1="458.89" x2="-1224.44" y2="458.89" gradientTransform="translate(472252.05 176966.19) scale(385.09 -385.09)" xlink:href="#linear-gradient-33"/><clipPath id="clippath-4"><rect class="cls-15" x="561.19" y="207.51" width="209.27" height="118.97"/></clipPath><filter id="drop-shadow-1" x="-15.79" y="-261.5" width="751.2" height="689.76" filterUnits="userSpaceOnUse"><feOffset dx="7" dy="7"/><feGaussianBlur result="blur" stdDeviation="5"/><feFlood flood-color="#231f20" flood-opacity=".75"/><feComposite in2="blur" operator="in"/><feComposite in="SourceGraphic"/></filter></defs><g class="cls-46"><polygon class="cls-43" points="454.37 130.53 526.51 35.69 371.18 -21.41 454.37 130.53"/><polygon class="cls-11" points="521.44 -21.41 371.18 -21.41 526.51 35.69 521.44 -21.41"/><polygon class="cls-28" points="328.59 -75.96 290.2 -40.19 350.18 22.23 371.18 -21.41 328.59 -75.96"/><polygon class="cls-5" points="454.37 130.53 350.18 22.23 371.18 -21.41 454.37 130.53"/><polygon class="cls-19" points="638.16 280.57 282.23 407.47 502.69 280.51 638.16 280.57"/><polygon class="cls-16" points="454.37 130.47 526.51 35.62 371.18 -21.47 454.37 130.47"/><polygon class="cls-27" points="521.44 -21.47 371.18 -21.47 526.51 35.62 521.44 -21.47"/><polygon class="cls-28" points="328.59 -76.03 290.2 -40.19 350.18 22.16 371.18 -21.47 328.59 -76.03"/><polygon class="cls-18" points="526.51 35.62 649.58 -21.47 521.44 -21.47 526.51 35.62"/><polygon class="cls-22" points="454.37 130.47 350.18 22.16 371.18 -21.47 454.37 130.47"/><polygon class="cls-38" points="454.37 130.47 702.87 176.45 514.79 193.28 454.37 130.47"/><polygon class="cls-34" points="649.58 -21.47 824.66 142.19 824.66 -76.03 649.58 -21.47"/><polygon class="cls-26" points="649.58 -21.47 526.51 35.62 787.31 107.27 649.58 -21.47"/><polygon class="cls-35" points="454.37 130.47 702.87 176.45 526.51 35.62 454.37 130.47"/><polygon class="cls-8" points="526.51 35.62 702.87 176.45 806.24 124.97 787.31 107.27 526.51 35.62"/><polygon class="cls-36" points="514.79 193.28 598.71 280.51 638.16 280.51 702.87 176.45 514.79 193.28"/><polygon class="cls-9" points="695.49 381.12 814.87 381.12 638.16 280.51 608.83 291.03 695.49 381.12"/><polygon class="cls-2" points="814.87 381.12 638.16 280.51 702.87 176.45 814.87 381.12"/><polygon class="cls-30" points="814.87 381.12 702.87 176.45 806.24 124.97 824.66 142.19 823.02 394.98 814.87 381.12"/><polygon class="cls-1" points="328.59 191.08 350.18 22.23 454.37 130.53 328.59 191.08"/><polygon class="cls-42" points="211.2 104.9 328.59 191.08 350.18 22.23 211.2 104.9"/><polygon class="cls-33" points="328.59 191.08 282.23 407.47 502.69 280.51 328.59 191.08"/><polygon class="cls-47" points="149.6 422.32 282.23 407.47 328.59 191.08 149.6 422.32"/><polygon class="cls-27" points="194.07 -87.96 9.13 -21.41 77.98 66.04 194.07 -87.96"/><polygon class="cls-37" points="350.18 22.23 290.2 -40.19 211.2 104.9 350.18 22.23"/><polygon class="cls-32" points="77.98 66.04 194.07 -87.96 211.2 104.9 77.98 66.04"/><polygon class="cls-39" points="211.2 104.9 25.91 236.96 162.19 247.47 211.2 104.9"/><polygon class="cls-23" points="149.6 422.32 162.19 247.47 328.59 191.08 149.6 422.32"/><polygon class="cls-44" points="162.19 247.47 -7.66 385.9 149.6 422.32 162.19 247.47"/><polygon class="cls-24" points="282.23 407.47 695.49 381.18 608.83 291.03 282.23 407.47"/><polygon class="cls-6" points="328.59 191.08 502.69 280.51 514.79 193.35 328.59 191.08"/><polygon class="cls-14" points="25.91 236.96 77.98 66.04 211.2 104.9 25.91 236.96"/><polygon class="cls-10" points="9.13 -21.41 25.91 236.96 77.98 66.04 9.13 -21.41"/><polygon class="cls-3" points="162.19 247.47 25.91 236.96 -7.66 247.47 -7.66 385.9 162.19 247.47"/><polygon class="cls-7" points="25.91 236.96 -7.66 247.47 9.13 -21.41 25.91 236.96"/><polygon class="cls-31" points="162.19 247.47 328.59 191.08 211.2 104.9 162.19 247.47"/><polygon class="cls-17" points="514.79 193.35 502.69 280.51 598.71 280.51 514.79 193.35"/><polygon class="cls-45" points="211.2 104.9 194.07 -87.96 290.2 -40.19 211.2 104.9"/><polygon class="cls-41" points="514.79 193.35 328.59 191.08 454.37 130.53 514.79 193.35"/><g class="cls-21"><g class="cls-40"><rect class="cls-25" x="595.12" y="198.36" width="169.55" height="169.55" transform="translate(-1.07 563.69) rotate(-45)"/></g><g class="cls-29"><rect class="cls-20" x="579.56" y="166.06" width="169.55" height="169.55" transform="translate(17.21 543.22) rotate(-45)"/></g><g class="cls-4"><path class="cls-12" d="M578.36,286.82c-.4-1.02-.65-1.6-.76-1.85l-2.32-6.17c-1.45-3.67-3.05-7.52-4.83-11.51l-3.52-8.28c-.44-1.13-1.05-2.07-1.78-2.87-.76-.8-1.56-1.34-2.47-1.63-.54-.22-.94-.44-1.16-.62s-.33-.47-.33-.87c0-.54.58-.84,1.74-.84,1.56,0,2.8.07,3.67.25,1.13.11,2.18.18,3.16.18s2.18-.07,3.52-.18c1.13-.18,2.43-.25,3.92-.25.4,0,.76.07,1.16.22.4.15.58.36.58.62,0,.4-.11.65-.36.84s-.54.33-.87.47c-.33.15-.54.25-.65.29-.54.22-.98.65-1.31,1.27-.29.62-.47,1.34-.47,2.18,0,1.13.11,1.92.33,2.43l6.24,16.12c.11.07.18.07.25,0l5.85-15.21c.4-.94.58-2,.58-3.16,0-1.02-.18-1.78-.54-2.4-.36-.58-.94-1.02-1.78-1.31-.73-.22-1.23-.44-1.49-.62-.29-.18-.4-.47-.4-.87,0-.62.58-.91,1.74-.91.51,0,1.2.07,2.11.18,1.56.11,2.87.18,3.92.18s2.07-.07,3.16-.18c.76-.11,1.49-.18,2.11-.18,1.16,0,1.74.29,1.74.84,0,.4-.15.69-.4.91-.29.22-.76.44-1.42.65-.91.29-1.82.94-2.8,1.96-.98,1.02-1.71,2.21-2.21,3.56l-6.5,15.94c-.51,1.05-1.05,2.36-1.67,3.88-.62,1.52-1.05,2.72-1.34,3.56-.11.29-.44,1.05-1.02,2.29-.54,1.23-1.02,2.11-1.34,2.54h-1.02c-.29.04-.62-.47-1.02-1.45"/><path class="cls-12" d="M606.5,285.47c-2.32-1.56-4.18-3.7-5.48-6.46-1.31-2.76-1.96-5.92-1.96-9.48,0-3.23.76-6.21,2.29-8.97,1.52-2.76,3.59-4.94,6.17-6.61,2.58-1.63,5.37-2.47,8.39-2.47,3.45,0,6.32,1.02,8.57,3.09,2.25,2.07,3.38,4.65,3.38,7.77,0,.94-.22,1.63-.62,2.11-.4.44-1.09.65-1.96.65h-17.28c-.76,0-1.31.22-1.63.65-.29.44-.47,1.23-.47,2.43,0,2.43.54,4.72,1.6,6.75,1.05,2.07,2.51,3.7,4.39,4.9,1.85,1.2,3.92,1.78,6.14,1.78,3.12,0,5.92-1.23,8.35-3.67.29-.44.58-.65.91-.65.51,0,.76.29.76.91,0,.84-.4,1.89-1.16,3.16-1.16,1.89-2.87,3.45-5.05,4.65-2.21,1.2-4.65,1.78-7.3,1.78-3.01,0-5.7-.76-8.02-2.32M614.78,262.24c2.51,0,4.43-.15,5.77-.44.51-.18.76-.87.76-2.11,0-1.56-.65-2.87-1.92-3.96s-2.8-1.63-4.57-1.63c-1.16,0-2.36.36-3.59,1.09-1.23.73-2.21,1.63-2.98,2.76-.76,1.13-1.13,2.21-1.13,3.27,0,.65.36,1.02,1.09,1.02h6.57Z"/><path class="cls-12" d="M632.39,285.8c0-.4.15-.69.47-.91.29-.22.8-.44,1.45-.58,1.13-.22,1.92-.58,2.43-1.13.51-.54.76-1.2.76-2.03v-18.37c0-1.49-.22-2.72-.65-3.63s-1.23-1.52-2.43-1.78c-.22-.07-.44-.18-.62-.44-.18-.22-.29-.51-.29-.84,0-.54.29-.94.84-1.16,1.45-.4,3.05-.98,4.79-1.74,1.74-.76,3.27-1.52,4.54-2.25.73-.44,1.23-.65,1.49-.65.4,0,.58.22.58.65l-.25,6.43c0,.22.07.33.18.33,1.45-1.85,3.05-3.34,4.79-4.5s3.45-1.74,5.12-1.74c1.45,0,2.58.29,3.34.87.76.58,1.16,1.34,1.16,2.29,0,1.05-.4,2.18-1.2,3.34-.8,1.16-1.67,1.74-2.61,1.74-.44,0-1.34-.29-2.69-.91-.22-.11-.62-.29-1.2-.54-.58-.25-1.09-.36-1.56-.36-1.6,0-2.94.54-3.99,1.67s-1.6,3.01-1.6,5.66v15.65c0,.84.33,1.49,1.02,2,.65.51,1.78,1.02,3.34,1.49.65.18,1.16.36,1.45.58.29.22.47.51.47.84,0,.65-.54,1.02-1.6,1.02-1.6,0-3.09-.07-4.43-.25-1.67-.11-2.94-.18-3.85-.18s-2.07.07-3.52.18c-1.16.18-2.54.25-4.1.25-1.09.04-1.63-.33-1.63-.98"/><path class="cls-12" d="M662.38,285.8c0-.62.58-1.09,1.74-1.42,1.38-.4,2.36-.8,2.9-1.2s.84-1.09.84-1.96v-18.04c0-3.56-1.27-5.55-3.78-5.92-.54-.07-.84-.47-.84-1.23,0-.65.25-1.02.76-1.09,3.63-.76,7.04-2.25,10.27-4.43.65-.4,1.13-.58,1.34-.58.44,0,.65.22.65.65,0,.33-.11,1.6-.33,3.85-.33,3.34-.51,5.92-.51,7.77v19.02c0,.84.29,1.49.87,1.96.58.47,1.56.87,2.87,1.2,1.16.33,1.74.8,1.74,1.42,0,.65-.51,1.02-1.49,1.02-1.45,0-2.8-.07-4.1-.25-1.56-.11-2.8-.18-3.78-.18s-2.14.07-3.59.18c-1.16.18-2.54.25-4.1.25-.98,0-1.49-.36-1.49-1.02M667.93,242.67c-.98-.98-1.45-2.14-1.45-3.56s.47-2.65,1.45-3.63c.98-.98,2.14-1.45,3.56-1.45s2.69.47,3.67,1.45c1.02.98,1.49,2.18,1.49,3.63s-.51,2.58-1.49,3.56c-1.02.98-2.21,1.45-3.67,1.45s-2.61-.47-3.56-1.45"/><path class="cls-12" d="M692.04,285.15c-1.63-1.74-2.47-4.25-2.47-7.59v-19.39c0-.44-.18-.76-.58-.94-.4-.18-1.09-.29-2.11-.29h-.65c-.33,0-.62-.22-.84-.65-.22-.44-.33-.91-.33-1.42,0-.18.07-.33.22-.51s.25-.29.36-.33c1.56-.91,3.16-2.03,4.83-3.41,1.67-1.38,3.09-2.69,4.25-3.92l.58-.58c.33-.33.69-.51,1.09-.51.84,0,1.23.4,1.16,1.23l-.51,4.1v.33c0,.51.18.84.51,1.05.33.18.84.29,1.49.29h9.69c.18,0,.33.18.51.58.18.4.25.76.25,1.16,0,.62-.07,1.2-.25,1.74s-.36.84-.58.84h-8.1c-1.38,0-2.29.15-2.72.44-.44.29-.62.91-.62,1.92v16.19c0,2.32.47,4.14,1.42,5.37.94,1.27,2.29,1.89,3.99,1.89,1.45,0,2.61-.11,3.45-.33.87-.22,1.67-.58,2.47-1.09l.44-.18c.44,0,.65.44.65,1.34,0,.4-.54,1.02-1.63,1.89-1.09.87-2.43,1.63-4.07,2.32-1.6.69-3.27,1.05-4.94,1.05-2.98-.04-5.34-.91-6.97-2.61"/><path class="cls-12" d="M717.09,286.6c-1.13-.76-2.07-1.71-2.8-2.83-.73-1.13-1.09-2.25-1.09-3.38,0-1.78.51-3.23,1.49-4.36,1.02-1.13,2.61-2.14,4.83-3.09l8.1-3.41c1.13-.44,1.78-.84,2-1.16.22-.33.36-1.09.4-2.25l.18-5.08c.07-1.56-.33-2.83-1.13-3.81-.8-.98-1.92-1.45-3.38-1.45-.76,0-1.56.15-2.4.44-.8.29-1.45.65-1.96,1.09-.44.44-.65,1.16-.65,2.18l.07,1.85c0,.44-.8,1.09-2.4,1.89s-2.87,1.2-3.81,1.2c-.33,0-.58-.11-.8-.33-.18-.22-.29-.47-.29-.76,0-1.85,1.16-3.74,3.52-5.77,1.96-1.74,4.18-3.16,6.68-4.28,2.51-1.13,4.65-1.71,6.43-1.71,2.32,0,4.25.8,5.66,2.4,1.45,1.6,2.14,3.63,2.11,6.14l-.4,18.88c-.07,1.23.18,2.21.76,3.01.54.76,1.27,1.16,2.11,1.16,1.34,0,2.32-.33,3.01-1.02.22-.22.44-.33.58-.33.29,0,.51.11.73.29.18.18.29.4.29.62,0,.62-.4,1.31-1.16,2.11-.94.94-1.96,1.67-3.05,2.21s-2.14.8-3.12.8c-2.83,0-5.08-1.49-6.68-4.5h-.25c-1.85,1.6-3.56,2.76-5.19,3.45-1.6.69-3.27,1.05-5.01,1.05-1.09-.11-2.21-.51-3.38-1.23M728.93,281.44c.54-.54.87-1.56.91-3.01l.18-4.76v-.44c0-.76-.25-1.16-.76-1.16-.33,0-.8.15-1.42.44-2.43.94-4.18,1.92-5.23,2.9-1.02,1.02-1.56,2.14-1.56,3.41,0,1.38.36,2.47,1.13,3.23.76.76,1.63,1.13,2.61,1.13,1.6.04,2.94-.54,4.14-1.74"/><path class="cls-12" d="M748.39,284.78c-.33-.62-.58-1.67-.8-3.23-.18-1.52-.29-3.01-.29-4.47,0-.54.44-.84,1.27-.84.29,0,.54.07.8.22.25.15.44.33.54.54.76,2.58,1.92,4.54,3.41,5.88,1.49,1.38,3.16,2.03,5.01,2.03,1.56,0,2.83-.51,3.85-1.56,1.02-1.02,1.49-2.25,1.49-3.7s-.47-2.69-1.45-3.7-2.61-2.25-4.97-3.63c-2.9-1.67-5.05-3.34-6.43-4.97-1.38-1.63-2.11-3.59-2.11-5.88,0-2.94,1.09-5.37,3.27-7.26,2.18-1.89,5.08-2.83,8.79-2.83,1.6,0,3.09.18,4.39.51,1.31.33,2.25.73,2.87,1.16.44.62.84,1.6,1.13,2.98.29,1.38.47,2.76.47,4.21,0,.22-.11.4-.33.51-.22.11-.47.18-.76.18-.4,0-.76-.11-1.13-.29s-.58-.4-.62-.62c-1.56-3.96-3.78-5.92-6.68-5.92-1.38,0-2.61.44-3.63,1.31s-1.56,2-1.56,3.38c0,1.23.44,2.32,1.34,3.3.91.98,2.36,2.03,4.43,3.23,3.56,2,6.1,3.81,7.55,5.48,1.49,1.63,2.21,3.74,2.21,6.32,0,3.27-1.16,5.88-3.52,7.81-2.32,1.92-5.45,2.87-9.37,2.87-3.74-.07-6.83-1.05-9.19-3.01"/></g></g><polygon class="cls-13" points="395.93 406.2 -7.75 406.2 -7.75 -251.95 713.18 -253.49 395.93 406.2"/></g></svg>