<?xml version="1.0" encoding="UTF-8"?><svg id="Layer_1" xmlns="http://www.w3.org/2000/svg" xmlns:xlink="http://www.w3.org/1999/xlink" viewBox="0 0 630.08 810"><defs><style>.cls-1{fill:url(#linear-gradient-15);}.cls-2{fill:url(#linear-gradient-13);}.cls-3{fill:url(#linear-gradient-28);}.cls-4{fill:url(#linear-gradient-53);}.cls-5{fill:url(#linear-gradient-42);}.cls-6{fill:url(#linear-gradient-46);}.cls-7{fill:url(#linear-gradient-2);}.cls-8{fill:url(#linear-gradient-43);}.cls-9{fill:url(#linear-gradient-25);}.cls-10{fill:#054366;}.cls-11{fill:url(#linear-gradient-10);}.cls-12{fill:url(#linear-gradient-12);}.cls-13{fill:url(#linear-gradient-40);}.cls-14{fill:url(#linear-gradient-27);}.cls-15{fill:url(#linear-gradient-37);}.cls-16{fill:#05515f;}.cls-17{fill:#091314;}.cls-18{fill:url(#linear-gradient-39);}.cls-19{fill:url(#linear-gradient-52);}.cls-20{fill:url(#linear-gradient-47);}.cls-21{fill:url(#linear-gradient-26);}.cls-22{fill:none;}.cls-23{fill:url(#linear-gradient-4);}.cls-24{fill:url(#linear-gradient-35);}.cls-25{fill:url(#linear-gradient-30);}.cls-26{fill:url(#New_Gradient_Swatch_copy_2);}.cls-27{fill:url(#linear-gradient-44);}.cls-28{fill:url(#linear-gradient-49);}.cls-29{fill:url(#linear-gradient-3);}.cls-30{fill:url(#linear-gradient-34);}.cls-31{fill:url(#linear-gradient-5);}.cls-32{fill:url(#linear-gradient-38);}.cls-33{fill:url(#linear-gradient-22);}.cls-34{fill:url(#linear-gradient-24);}.cls-35{fill:url(#linear-gradient-33);}.cls-36{fill:url(#linear-gradient-51);}.cls-37{fill:url(#linear-gradient-8);}.cls-38{fill:#0f4b66;}.cls-39{fill:#02465d;}.cls-40{fill:url(#linear-gradient-14);}.cls-41{fill:#081111;}.cls-42{fill:url(#linear-gradient-29);}.cls-43{fill:url(#linear-gradient-20);}.cls-44{fill:url(#linear-gradient-17);}.cls-45{fill:url(#linear-gradient-50);}.cls-46{fill:url(#linear-gradient-7);}.cls-47{fill:url(#linear-gradient-9);}.cls-48{fill:url(#linear-gradient-11);}.cls-49{fill:url(#linear-gradient-19);}.cls-50{fill:url(#linear-gradient-6);}.cls-51{fill:url(#linear-gradient-36);}.cls-52{fill:url(#linear-gradient-21);}.cls-53{fill:url(#linear-gradient-45);}.cls-54{fill:url(#linear-gradient-48);}.cls-55{fill:url(#linear-gradient-32);}.cls-56{fill:url(#linear-gradient-41);}.cls-57{fill:url(#linear-gradient-16);}.cls-58{fill:url(#linear-gradient);}.cls-59{fill:url(#linear-gradient-23);}.cls-60{fill:url(#linear-gradient-31);}.cls-61{clip-path:url(#clippath);}.cls-62{fill:url(#linear-gradient-18);}</style><clipPath id="clippath"><rect class="cls-22" x="1" width="630.08" height="810"/></clipPath><linearGradient id="linear-gradient" x1="618.57" y1="196.51" x2="618.57" y2="84.29" gradientUnits="userSpaceOnUse"><stop offset=".16" stop-color="#061d26"/><stop offset=".38" stop-color="#05212c"/><stop offset=".66" stop-color="#032e3d"/><stop offset="1" stop-color="#014359"/><stop offset="1" stop-color="#01445a"/></linearGradient><linearGradient id="linear-gradient-2" x1="251.49" y1="439.83" x2="403.42" y2="439.83" gradientUnits="userSpaceOnUse"><stop offset=".27" stop-color="#035e72"/><stop offset=".84" stop-color="#044c67"/></linearGradient><linearGradient id="linear-gradient-3" x1="457.98" y1="293.51" x2="638.14" y2="293.51" gradientUnits="userSpaceOnUse"><stop offset=".26" stop-color="#044c67"/><stop offset=".75" stop-color="#053a4c"/></linearGradient><linearGradient id="linear-gradient-4" x1="403.42" y1="426.15" x2="575.97" y2="426.15" gradientUnits="userSpaceOnUse"><stop offset=".06" stop-color="#04586f"/><stop offset=".36" stop-color="#055369"/><stop offset=".73" stop-color="#0a4659"/><stop offset=".77" stop-color="#0b4558"/></linearGradient><linearGradient id="linear-gradient-5" x1="496.17" y1="297.53" x2="617.96" y2="508.48" gradientUnits="userSpaceOnUse"><stop offset=".25" stop-color="#186c8d"/><stop offset=".94" stop-color="#053a4c"/></linearGradient><linearGradient id="linear-gradient-6" x1="546.53" y1="153.15" x2="680.76" y2="385.64" gradientUnits="userSpaceOnUse"><stop offset=".16" stop-color="#0e1012"/><stop offset="1" stop-color="#053a4c"/></linearGradient><linearGradient id="linear-gradient-7" x1="403.42" y1="416" x2="457.98" y2="416" gradientUnits="userSpaceOnUse"><stop offset=".37" stop-color="#043e50"/><stop offset="1" stop-color="#0d2c40"/></linearGradient><linearGradient id="linear-gradient-8" x1="251.49" y1="393.25" x2="403.42" y2="393.25" gradientUnits="userSpaceOnUse"><stop offset=".16" stop-color="#0b4558"/><stop offset="1" stop-color="#053a4c"/></linearGradient><linearGradient id="linear-gradient-9" x1="-25.45" y1="451.18" x2="101.51" y2="451.18" gradientUnits="userSpaceOnUse"><stop offset=".09" stop-color="#1585bf"/><stop offset=".25" stop-color="#137db3"/><stop offset=".54" stop-color="#106a94"/><stop offset=".92" stop-color="#0c4c63"/><stop offset="1" stop-color="#0b4558"/></linearGradient><linearGradient id="linear-gradient-10" x1="251.55" x2="403.49" xlink:href="#linear-gradient-2"/><linearGradient id="linear-gradient-11" x1="458.05" x2="638.2" xlink:href="#linear-gradient-3"/><linearGradient id="linear-gradient-12" x1="403.49" x2="576.04" xlink:href="#linear-gradient-4"/><linearGradient id="linear-gradient-13" x1="647.14" y1="640.11" x2="567.1" y2="501.46" gradientUnits="userSpaceOnUse"><stop offset="0" stop-color="#01435e"/><stop offset=".64" stop-color="#11607f"/><stop offset="1" stop-color="#186c8d"/></linearGradient><linearGradient id="linear-gradient-14" x1="489.76" y1="681.16" x2="489.76" y2="532.72" xlink:href="#linear-gradient"/><linearGradient id="linear-gradient-15" x1="436.06" y1="493.62" x2="491.54" y2="589.72" gradientUnits="userSpaceOnUse"><stop offset=".19" stop-color="#02384a"/><stop offset=".87" stop-color="#0b4558"/></linearGradient><linearGradient id="linear-gradient-16" x1="496.24" x2="618.03" y2="508.48" xlink:href="#linear-gradient-5"/><linearGradient id="linear-gradient-17" x1="546.6" y1="153.15" x2="680.83" y2="385.64" xlink:href="#linear-gradient-6"/><linearGradient id="linear-gradient-18" x1="436.01" y1="306.86" x2="541.1" y2="124.84" gradientUnits="userSpaceOnUse"><stop offset=".46" stop-color="#1585bf"/><stop offset=".55" stop-color="#1272a1"/><stop offset=".71" stop-color="#0c516c"/><stop offset=".79" stop-color="#0b4558"/></linearGradient><linearGradient id="linear-gradient-19" x1="422.2" y1="252.31" x2="469.98" y2="252.31" gradientUnits="userSpaceOnUse"><stop offset=".75" stop-color="#066181"/><stop offset=".84" stop-color="#0a6384"/><stop offset=".93" stop-color="#176b8c"/><stop offset=".93" stop-color="#186c8d"/></linearGradient><linearGradient id="linear-gradient-20" x1="403.49" x2="458.05" xlink:href="#linear-gradient-7"/><linearGradient id="linear-gradient-21" x1="563.36" y1="774.58" x2="718.12" y2="506.54" gradientUnits="userSpaceOnUse"><stop offset=".15" stop-color="#012640"/><stop offset=".68" stop-color="#03445c"/><stop offset="1" stop-color="#055269"/></linearGradient><linearGradient id="New_Gradient_Swatch_copy_2" x1="363.67" y1="507.52" x2="431.23" y2="624.54" gradientUnits="userSpaceOnUse"><stop offset=".46" stop-color="#1585bf"/><stop offset=".56" stop-color="#137db3"/><stop offset=".73" stop-color="#106a94"/><stop offset=".95" stop-color="#0c4c63"/><stop offset="1" stop-color="#0b4558"/></linearGradient><linearGradient id="linear-gradient-22" x1="251.55" x2="403.49" xlink:href="#linear-gradient-8"/><linearGradient id="linear-gradient-23" x1="188.74" y1="569.6" x2="251.55" y2="569.6" gradientUnits="userSpaceOnUse"><stop offset=".44" stop-color="#06384a"/><stop offset="1" stop-color="#044c67"/></linearGradient><linearGradient id="linear-gradient-24" x1="348.94" y1="815.65" x2="348.94" y2="640.56" gradientUnits="userSpaceOnUse"><stop offset=".37" stop-color="#055269"/><stop offset=".51" stop-color="#07556d"/><stop offset=".67" stop-color="#0e5e7a"/><stop offset=".8" stop-color="#186c8d"/></linearGradient><linearGradient id="linear-gradient-25" x1="531.41" y1="773.29" x2="441.96" y2="618.35" gradientUnits="userSpaceOnUse"><stop offset=".09" stop-color="#052335"/><stop offset=".91" stop-color="#055269"/></linearGradient><linearGradient id="linear-gradient-26" x1="274.75" y1="647.89" x2="403.49" y2="647.89" gradientUnits="userSpaceOnUse"><stop offset=".37" stop-color="#055269"/><stop offset=".84" stop-color="#01445a"/></linearGradient><linearGradient id="linear-gradient-27" x1="275.98" y1="445.35" x2="275.98" y2="693.85" gradientUnits="userSpaceOnUse"><stop offset=".24" stop-color="#156888"/><stop offset=".56" stop-color="#136585"/><stop offset=".75" stop-color="#0c5c7d"/><stop offset=".91" stop-color="#024e70"/><stop offset=".94" stop-color="#004b6d"/></linearGradient><linearGradient id="linear-gradient-28" x1="275.98" y1="517.5" x2="275.98" y2="797.22" gradientUnits="userSpaceOnUse"><stop offset=".43" stop-color="#156888"/><stop offset=".65" stop-color="#0f6080"/><stop offset="1" stop-color="#004b6d"/><stop offset="1" stop-color="#004b6d"/></linearGradient><linearGradient id="linear-gradient-29" x1="153.54" y1="693.85" x2="153.54" y2="505.78" gradientUnits="userSpaceOnUse"><stop offset=".28" stop-color="#044c67"/><stop offset=".72" stop-color="#045c7a"/></linearGradient><linearGradient id="linear-gradient-30" x1="56.77" y1="709.08" x2="5.08" y2="679.24" gradientUnits="userSpaceOnUse"><stop offset="0" stop-color="#111920"/><stop offset=".43" stop-color="#0f1f2a"/><stop offset="1" stop-color="#0d2c40"/></linearGradient><linearGradient id="linear-gradient-31" x1=".9" y1="717.5" x2="205.57" y2="717.5" gradientUnits="userSpaceOnUse"><stop offset="0" stop-color="#111920"/><stop offset=".28" stop-color="#0f212a"/><stop offset=".76" stop-color="#0c3746"/><stop offset="1" stop-color="#0b4558"/></linearGradient><linearGradient id="linear-gradient-32" x1="122.05" y1="815.65" x2="122.05" y2="693.85" xlink:href="#linear-gradient-30"/><linearGradient id="linear-gradient-33" y1="140.58" y2="0" xlink:href="#linear-gradient"/><linearGradient id="linear-gradient-34" x1="190.94" y1="382.46" x2="359.79" y2="382.46" xlink:href="#linear-gradient-24"/><linearGradient id="linear-gradient-35" x1="190.94" y1="271.67" x2="359.79" y2="271.67" xlink:href="#linear-gradient-9"/><linearGradient id="linear-gradient-36" x1="-25.45" y1="383.44" x2="190.94" y2="383.44" xlink:href="#linear-gradient"/><linearGradient id="linear-gradient-37" x1="190.94" y1="230.08" x2="-40.3" y2="230.08" gradientUnits="userSpaceOnUse"><stop offset=".06" stop-color="#04586f"/><stop offset=".33" stop-color="#055369"/><stop offset=".66" stop-color="#0a4659"/><stop offset=".69" stop-color="#0b4558"/></linearGradient><linearGradient id="linear-gradient-38" x1="469.98" y1="92.53" x2="630.98" y2="92.53" xlink:href="#linear-gradient"/><linearGradient id="linear-gradient-39" x1="277.12" y1="271.67" x2="422.2" y2="271.67" gradientUnits="userSpaceOnUse"><stop offset="0" stop-color="#111920"/><stop offset=".23" stop-color="#0f212a"/><stop offset=".64" stop-color="#0c3746"/><stop offset=".85" stop-color="#0b4558"/></linearGradient><linearGradient id="linear-gradient-40" y1="92.53" x2="510.9" y2="92.53" xlink:href="#linear-gradient-7"/><linearGradient id="linear-gradient-41" x1="448.05" y1="223.04" x2="282.28" y2="127.33" gradientUnits="userSpaceOnUse"><stop offset=".16" stop-color="#0e1012"/><stop offset=".79" stop-color="#053a4c"/></linearGradient><linearGradient id="linear-gradient-42" x1="173.06" y1="175.41" x2="234.7" y2="68.64" xlink:href="#linear-gradient-31"/><linearGradient id="linear-gradient-43" x1="-40.3" y1="230.08" x2="190.94" y2="230.08" gradientUnits="userSpaceOnUse"><stop offset=".24" stop-color="#156888"/><stop offset=".58" stop-color="#0d5d7e"/><stop offset="1" stop-color="#004b6d"/></linearGradient><linearGradient id="linear-gradient-44" x1="-40.3" y1="68.25" x2="134.55" y2="68.25" xlink:href="#linear-gradient"/><linearGradient id="linear-gradient-45" x1="-83.45" y1="637.81" x2="88.92" y2="339.25" xlink:href="#linear-gradient-31"/><linearGradient id="linear-gradient-46" x1="101.51" y1="412.68" x2="190.94" y2="412.68" gradientUnits="userSpaceOnUse"><stop offset=".09" stop-color="#1585bf"/><stop offset=".1" stop-color="#1483bd"/><stop offset=".38" stop-color="#106891"/><stop offset=".64" stop-color="#0d5572"/><stop offset=".85" stop-color="#0b495e"/><stop offset="1" stop-color="#0b4558"/></linearGradient><linearGradient id="linear-gradient-47" x1="145.06" y1="109.54" x2="315.98" y2="109.54" xlink:href="#linear-gradient-43"/><linearGradient id="linear-gradient-48" x1="403.42" y1="34.53" x2="145.06" y2="34.53" xlink:href="#linear-gradient"/><linearGradient id="linear-gradient-49" x1="145.06" y1="68.25" x2="-3.89" y2="68.25" gradientUnits="userSpaceOnUse"><stop offset=".16" stop-color="#061d26"/><stop offset=".41" stop-color="#042835"/><stop offset=".86" stop-color="#01445a"/></linearGradient><linearGradient id="linear-gradient-50" x1="135.24" y1="263.88" x2="237.03" y2="162.09" gradientUnits="userSpaceOnUse"><stop offset="0" stop-color="#111920"/><stop offset=".23" stop-color="#0e2b37"/><stop offset=".52" stop-color="#0b3e4f"/><stop offset=".69" stop-color="#0b4558"/></linearGradient><linearGradient id="linear-gradient-51" x1="101.51" y1="541.68" x2="188.67" y2="541.68" xlink:href="#linear-gradient-9"/><linearGradient id="linear-gradient-52" x1="277.12" y1="233.12" x2="469.98" y2="233.12" xlink:href="#linear-gradient-9"/><linearGradient id="linear-gradient-53" x1="188.67" y1="412.68" x2="251.49" y2="412.68" gradientUnits="userSpaceOnUse"><stop offset=".09" stop-color="#066181"/><stop offset=".49" stop-color="#0a6384"/><stop offset=".93" stop-color="#176b8c"/><stop offset=".93" stop-color="#186c8d"/></linearGradient></defs><g class="cls-61"><polygon class="cls-58" points="638.14 196.51 568.3 140.58 668.83 84.29 638.14 196.51"/><polygon class="cls-7" points="251.49 445.35 346.33 517.5 403.42 362.16 251.49 445.35"/><polygon class="cls-29" points="457.98 319.58 638.14 446.45 568.3 140.58 457.98 319.58"/><polygon class="cls-16" points="403.42 512.42 403.42 362.16 346.33 517.5 403.42 512.42"/><polygon class="cls-23" points="403.42 512.42 457.98 319.58 575.97 532.72 403.42 512.42"/><polygon class="cls-31" points="575.97 532.72 457.98 319.58 638.14 446.45 638.14 460.4 575.97 532.72"/><polygon class="cls-50" points="568.3 140.58 638.14 196.51 630.84 414.47 568.3 140.58"/><polygon class="cls-39" points="457.98 319.58 422.2 281.18 359.79 341.16 403.42 362.16 457.98 319.58"/><polygon class="cls-46" points="457.98 319.58 403.42 362.16 403.42 512.42 457.98 319.58"/><polygon class="cls-37" points="251.49 445.35 359.79 341.16 403.42 362.16 251.49 445.35"/><polygon class="cls-47" points="101.44 629.14 -25.45 273.21 101.51 493.67 101.44 629.14"/><polygon class="cls-17" points="638.2 196.51 568.37 140.58 630.9 80.42 638.2 196.51"/><polygon class="cls-11" points="251.55 445.35 346.4 517.5 403.49 362.16 251.55 445.35"/><polygon class="cls-48" points="458.05 319.58 638.2 446.45 568.37 140.58 458.05 319.58"/><polygon class="cls-38" points="403.49 512.42 403.49 362.16 346.4 517.5 403.49 512.42"/><polygon class="cls-12" points="403.49 512.42 458.05 319.58 576.04 532.72 403.49 512.42"/><polygon class="cls-2" points="576.04 532.72 638.2 460.4 576.04 681.16 576.04 532.72"/><polygon class="cls-40" points="576.04 532.72 403.49 640.56 576.04 681.16 576.04 532.72"/><polygon class="cls-1" points="576.04 532.72 403.49 512.42 403.49 640.56 576.04 532.72"/><polygon class="cls-57" points="576.04 532.72 458.05 319.58 638.2 446.45 638.2 460.4 576.04 532.72"/><polygon class="cls-44" points="568.37 140.58 638.2 196.51 630.9 414.47 568.37 140.58"/><polygon class="cls-62" points="568.37 140.58 458.05 319.58 469.98 185.05 568.37 140.58"/><polygon class="cls-49" points="469.98 185.05 422.2 281.18 458.05 319.58 469.98 185.05"/><polygon class="cls-39" points="458.05 319.58 422.2 281.18 359.86 341.16 403.49 362.16 458.05 319.58"/><polygon class="cls-43" points="458.05 319.58 403.49 362.16 403.49 512.42 458.05 319.58"/><polygon class="cls-52" points="638.2 460.4 576.04 681.16 643.28 820.72 638.2 460.4"/><polygon class="cls-26" points="346.4 517.5 403.49 640.56 403.49 512.42 346.4 517.5"/><polygon class="cls-33" points="251.55 445.35 359.86 341.16 403.49 362.16 251.55 445.35"/><polygon class="cls-59" points="251.55 445.35 205.57 693.85 188.74 505.78 251.55 445.35"/><polygon class="cls-34" points="403.49 640.56 239.83 815.65 458.05 815.65 403.49 640.56"/><polygon class="cls-9" points="458.05 815.65 576.04 681.16 403.49 640.56 458.05 815.65"/><polygon class="cls-41" points="576.04 681.16 643.28 820.72 458.05 815.65 576.04 681.16"/><polygon class="cls-21" points="403.49 640.56 346.4 517.5 274.75 778.29 403.49 640.56"/><polygon class="cls-14" points="251.55 445.35 205.57 693.85 346.4 517.5 251.55 445.35"/><polygon class="cls-3" points="346.4 517.5 205.57 693.85 257.05 797.22 274.75 778.29 346.4 517.5"/><polygon class="cls-42" points="188.74 505.78 101.51 589.69 101.51 629.14 205.57 693.85 188.74 505.78"/><polygon class="cls-25" points=".9 686.47 .9 805.85 101.51 629.14 90.98 599.81 .9 686.47"/><polygon class="cls-60" points=".9 805.85 101.51 629.14 205.57 693.85 .9 805.85"/><polygon class="cls-55" points=".9 805.85 205.57 693.85 257.05 797.22 239.83 815.65 -12.96 814 .9 805.85"/><polygon class="cls-17" points="469.98 185.05 630.98 0 568.3 140.58 469.98 185.05"/><polygon class="cls-35" points="668.83 84.29 630.98 0 568.3 140.58 668.83 84.29"/><polygon class="cls-30" points="190.94 319.58 359.79 341.16 251.49 445.35 190.94 319.58"/><polygon class="cls-24" points="277.12 202.18 190.94 319.58 359.79 341.16 277.12 202.18"/><polygon class="cls-51" points="190.94 319.58 -25.45 273.21 101.51 493.67 190.94 319.58"/><polygon class="cls-15" points="-40.3 140.58 -25.45 273.21 190.94 319.58 -40.3 140.58"/><polygon class="cls-38" points="469.98 185.05 403.42 .11 315.98 68.96 469.98 185.05"/><polygon class="cls-32" points="469.98 185.05 510.9 0 630.98 0 469.98 185.05"/><polygon class="cls-18" points="359.79 341.16 422.2 281.18 277.12 202.18 359.79 341.16"/><polygon class="cls-13" points="469.98 185.05 510.9 0 403.42 .11 469.98 185.05"/><polygon class="cls-56" points="315.98 68.96 469.98 185.05 277.12 202.18 315.98 68.96"/><polygon class="cls-5" points="277.12 202.18 145.06 16.89 134.55 153.17 277.12 202.18"/><polygon class="cls-8" points="-40.3 140.58 134.55 153.17 190.94 319.58 -40.3 140.58"/><polygon class="cls-27" points="134.55 153.17 -3.89 -16.68 -40.3 140.58 134.55 153.17"/><polygon class="cls-53" points="-25.45 273.21 .84 686.47 90.98 599.81 -25.45 273.21"/><polygon class="cls-6" points="190.94 319.58 101.51 493.67 188.67 505.78 190.94 319.58"/><polygon class="cls-20" points="145.06 16.89 315.98 68.96 277.12 202.18 145.06 16.89"/><polygon class="cls-54" points="403.42 .11 145.06 16.89 315.98 68.96 403.42 .11"/><polygon class="cls-28" points="134.55 153.17 145.06 16.89 134.55 -16.68 -3.89 -16.68 134.55 153.17"/><polygon class="cls-10" points="145.06 16.89 134.55 -16.68 403.42 .11 145.06 16.89"/><polygon class="cls-45" points="134.55 153.17 190.94 319.58 277.12 202.18 134.55 153.17"/><polygon class="cls-36" points="188.67 505.78 101.51 493.67 101.51 589.69 188.67 505.78"/><polygon class="cls-19" points="277.12 202.18 469.98 185.05 422.2 281.18 277.12 202.18"/><polygon class="cls-4" points="188.67 505.78 190.94 319.58 251.49 445.35 188.67 505.78"/></g></svg>